<?xml version="1.0" encoding="UTF-8" standalone="no"?>
<svg
   version="1.1"
   id="svg96"
   width="20"
   height="20"
   viewBox="0 0 19.999999 20.000001"
   sodipodi:docname="favicon.svg"
   inkscape:version="1.1.1 (3bf5ae0d25, 2021-09-20)"
   inkscape:export-filename="/home/silvio/Pictures/Trybewarts-colored.png"
   inkscape:export-xdpi="96"
   inkscape:export-ydpi="96"
   xmlns:inkscape="http://www.inkscape.org/namespaces/inkscape"
   xmlns:sodipodi="http://sodipodi.sourceforge.net/DTD/sodipodi-0.dtd"
   xmlns="http://www.w3.org/2000/svg"
   xmlns:svg="http://www.w3.org/2000/svg"
   xmlns:rdf="http://www.w3.org/1999/02/22-rdf-syntax-ns#"
   xmlns:cc="http://creativecommons.org/ns#"
   xmlns:dc="http://purl.org/dc/elements/1.1/">
  <metadata
     id="metadata102">
    <rdf:RDF>
      <cc:Work
         rdf:about="">
        <dc:format>image/svg+xml</dc:format>
        <dc:type
           rdf:resource="http://purl.org/dc/dcmitype/StillImage" />
      </cc:Work>
    </rdf:RDF>
  </metadata>
  <defs
     id="defs100" />
  <sodipodi:namedview
     pagecolor="#ffffff"
     bordercolor="#666666"
     borderopacity="1"
     objecttolerance="10"
     gridtolerance="10"
     guidetolerance="10"
     inkscape:pageopacity="0"
     inkscape:pageshadow="2"
     inkscape:window-width="1920"
     inkscape:window-height="928"
     id="namedview98"
     showgrid="false"
     inkscape:zoom="7.2407734"
     inkscape:cx="43.158373"
     inkscape:cy="-13.465412"
     inkscape:window-x="0"
     inkscape:window-y="32"
     inkscape:window-maximized="1"
     inkscape:current-layer="svg96"
     inkscape:snap-nodes="true"
     showguides="false"
     inkscape:pagecheckerboard="true"
     inkscape:document-rotation="0"
     width="20px" />
  <g
     id="g106" />
  <text
     xml:space="preserve"
     style="font-style:normal;font-weight:normal;font-size:20px;line-height:1.25;font-family:sans-serif;letter-spacing:0px;word-spacing:0px;fill:#000000;fill-opacity:1;stroke:none"
     x="73.539108"
     y="588.729"
     id="text4410" />
  <g
     id="g1114"
     transform="matrix(0.02227968,0,0,0.02227968,-3.7894573,-5.9762233)">
    <path
       style="opacity:0.99;fill:#2ca05a;fill-opacity:1;stroke-width:0.615962"
       d="m 611.80035,1107.0381 c -4.67125,-1.9425 -8.92949,-3.9864 -11.29863,-6.6847 -1.10391,-1.2573 -6.72817,-9.8529 -12.49837,-18.5368 -16.44653,-24.7511 -27.25977,-39.3753 -34.69208,-45.0894 -14.88934,-11.4473 -34.74388,-22.2685 -65.93519,-35.5286 -8.63887,-3.67258 -28.82701,-13.92591 -31.87602,-15.44496 -18.57354,-9.25355 -33.15352,-17.91216 -52.04877,-35.1973 -10.02421,-9.17002 -11.67957,-12.11566 -13.10085,-11.57026 -0.53634,0.20582 -6.90114,6.79741 -15.27324,15.58903 -14.88633,15.63226 -15.71091,17.80849 -16.90503,16.73654 -2.7986,-2.51228 -51.06465,-59.18335 -97.1842,-116.28261 -20.59649,-25.49991 -20.49716,-25.00222 -19.42888,-26.63262 1.7377,-2.65207 18.14378,-16.57646 50.08076,-44.48384 12.11926,-10.59013 24.26596,-22.7478 27.74553,-26.2642 14.53202,-14.68582 24.67446,-27.71463 37.31564,-54.42382 l 6.71863,-14.19558 81.38871,0.76996 81.38873,-0.15399 -0.58932,6.92957 c -1.25486,15.53636 -7.22836,40.52907 -13.64222,55.31695 -1.32817,3.06225 -1.79888,5.52072 -1.79888,5.83969 0,1.38836 16.28577,26.29649 23.13841,35.43931 4.50437,6.00974 2.70069,6.50897 4.86503,6.12185 1.19827,-0.21433 9.16984,-2.64675 16.96176,-4.46432 27.48768,-6.4119 37.90436,-9.60717 53.35373,-8.27474 l 10.19738,-1.14929 -0.1793,6.85929 c -0.0833,3.1862 0.25412,73.37736 0.0787,154.8537 -0.29743,138.17324 -0.50044,161.57714 -1.47634,161.50994 1.48598,1.0639 -3.44244,-0.814 -5.30573,-1.5888 z"
       id="path958"
       inkscape:connector-curvature="0"
       sodipodi:nodetypes="ccccssscssscsssccccsssccscsscc" />
    <path
       style="opacity:0.99;fill:#ffdd55;fill-opacity:1;stroke-width:0.615962"
       d="m 621.47669,1108.7837 c -0.2675,-0.4235 -1.7918,-65.5316 -2.05648,-141.75687 -0.26468,-76.22527 -1.34661,-147.81269 -0.93589,-159.0727 l 0.19866,-22.55016 7.13248,2.17833 c 15.92439,10e-4 26.65214,-0.78988 63.75195,10.04518 l 12.58263,3.67478 2.17787,-2.08599 c 3.20292,-3.0678 11.35815,-13.3183 15.50783,-19.49215 5.07634,-7.55252 10.38916,-19.08926 10.38916,-20.40514 0,-0.6069 -1.82426,-3.96994 -2.98922,-5.74331 -2.31943,-3.53077 -4.56154,-12.23173 -8.29736,-25.40535 -3.6111,-12.73382 -7.43527,-23.26254 -6.2956,-30.90832 l 0.54283,-6.68406 80.26133,0.29893 80.1371,-0.29893 4.27527,5.80153 c 1.48989,2.96653 10.45338,17.09664 19.5256,32.52858 l 18.77671,27.57044 37.0741,32.93144 c 16.40847,14.57498 8.87001,7.14114 25.16991,21.77476 7.74955,6.95735 14.01528,13.0947 15.38776,14.30399 1.51041,1.33082 1.92474,4.3976 1.71752,4.9309 -0.9337,2.403 -24.11657,30.47313 -62.39341,77.20431 -6.79849,8.30008 -16.16585,20.98115 -21.21561,27.24857 -14.24449,17.67924 -30.32782,36.12397 -31.45113,36.12397 -1.70356,0 -8.87672,-7.84414 -17.22283,-16.6329 -8.34611,-8.78876 -14.74477,-15.71858 -15.417,-15.93194 -1.58338,-0.50254 -1.30761,0.43381 -13.93261,12.38324 -10.9942,10.40591 -17.8887,15.52739 -24.74972,19.79495 -5.46637,3.40009 -18.00217,9.96125 -48.88073,24.63678 -51.78664,24.61254 -69.57816,34.47434 -82.94847,48.45994 -7.41636,7.7576 -12.9963,16.5356 -26.72756,37.3218 -7.01597,10.6207 -12.18978,18.8312 -13.97517,20.4769 -1.59564,1.4708 -4.6084,4.2672 -7.09426,5.4158 -5.15911,2.3836 -7.37871,2.8868 -8.02566,1.8627 z"
       id="path952"
       inkscape:connector-curvature="0"
       sodipodi:nodetypes="cssccscssssssccccscssscscsscssccsccc" />
    <path
       style="opacity:0.99;fill:#5f8dd3;fill-opacity:1;stroke-width:0.5"
       d="m 712.83096,683.19224 c 0.15254,-1.16875 0.0933,-5.09822 0.51663,-8.94822 1.4036,-12.76622 3.55115,-27.41294 5.79195,-36.78033 3.72546,-15.57381 9.9173,-37.35927 9.9173,-38.20637 0,-0.80531 -16.13934,-18.28893 -22.34059,-24.8626 -5.09322,-5.39907 -2.98074,-4.82832 -13.75562,-0.91012 -17.49999,6.36373 -33.56317,10.41219 -54.63862,14.36558 -6.03407,1.13188 -18.68304,2.10414 -19.02488,1.7564 -0.0918,-0.0933 0.69387,-3.21345 0.92463,-6.51345 0.23077,-3.3 -0.12064,-54.56093 0.38095,-75.78813 l 1.42657,-69.95911 10.85265,-14.54089 11.54188,-14.65442 21.57865,-0.1512 20.6733,0.1512 6.50608,-4.77385 c 30.9725,-22.72614 65.14273,-45.2803 81.625,-53.8952 17.04744,-8.9103 51.98481,-23.16284 73.26836,-22.54284 l 5.70587,-0.81528 19.45038,22.04503 c 57.63667,65.32532 76.52773,84.31897 76.1168,86.37611 -0.3482,1.80172 -9.99921,4.69899 -13.8287,6.10505 -24.1285,12.84496 -45.18419,20.57604 -60.6232,38.98392 -16.63796,19.83737 -27.30808,40.60827 -29.99631,71.64711 -2.14109,24.72134 4.2802,67.71339 15.63838,102.73554 2.78028,8.57279 8.65173,14.69249 10.20775,28.72027 l 0.79678,3.08211 c 0,0 -166.80005,-0.002 -158.68164,-0.002 z"
       id="path911"
       inkscape:connector-curvature="0"
       sodipodi:nodetypes="cssscscccscccccssscsccasssccc" />
    <path
       style="opacity:0.99;fill:#e95420;fill-opacity:1;stroke-width:1.41421"
       d="m 366.54297,685.82033 c 0,-0.1998 2.19953,-7.21187 4.95701,-14.20688 6.50374,-16.49834 14.33163,-41.72111 18.22694,-61.01654 2.32216,-11.50281 3.38528,-22.2412 3.87441,-42.91843 0.78168,-33.04467 -0.76593,-40.08347 -11.27385,-61.67198 -6.18611,-12.70936 -8.81459,-16.30586 -20.81898,-28.48634 -7.55644,-7.66729 -17.9175,-16.11426 -23.4829,-19.68771 -11.42578,-7.3363 -33.08274,-18.45203 -41.15783,-20.87139 -3.56504,-1.06811 -7.86872,-2.34651 -7.37883,-3.62313 0.40556,-1.0569 23.08356,-27.46215 48.97355,-55.45646 l 46.14103,-50.99861 6.48469,0.61713 c 12.35703,1.17598 33.84,7.05313 47.38031,11.71609 24.33795,8.38142 49.44929,22.68097 92.77127,54.27743 l 20.09615,14.65693 20.33394,0.009 22.09379,-0.009 12.16485,15.91892 10.73164,14.72171 2.0179,63.70663 c 0.0127,34.61287 0.0719,67.32375 0.57986,73.85053 l -0.2696,13.28108 -6.72156,0.29532 c -48.50638,-9.87396 -53.61948,-12.48054 -76.41302,-18.94018 0,0 -15.1879,17.89555 -27.39085,28.5468 l 6.81585,18.50326 c 4.70012,12.7596 10.64086,45.3293 10.25661,60.20264 l -0.36152,7.59488 -158.63084,-0.0117 z"
       id="path867"
       inkscape:connector-curvature="0"
       sodipodi:nodetypes="cssssssscscssscccccccccccscccc" />
    <path
       id="path808"
       style="fill:#552200;stroke-width:0.518351"
       d="M 475.76562,724.85547 375.05469,783 v 116.28906 l 98.5315,61.34569 c 0,0 27.34711,-19.21603 26.62693,-18.18745 -4.17725,-6.0309 -11.82724,-27.05397 -12.3225,-31.83402 -0.53926,-6.77463 -0.51873,-8.6185 0.11133,-10.18359 0.42312,-1.05098 2.9806,-4.61936 5.6836,-7.93164 9.23142,-11.31227 13.16917,-25.07756 15.15234,-38.37891 1.16492,-7.81332 1.11266,-12.61695 -0.24219,-22.28516 -1.02013,-7.27967 -1.589,-9.80393 -3.19531,-14.12304 -1.0757,-2.89236 -2.22133,-5.69859 -2.54492,-6.23633 -0.32357,-0.53774 -1.12961,-2.20851 -1.78906,-3.71289 -1.89904,-4.33222 -7.59933,-13.30688 -11.36133,-17.88672 -3.7463,-4.56075 -9.38514,-10.14198 -13.16016,-13.02734 -2.91786,-2.2302 -5.33299,-4.95247 -7.79883,-8.78907 -1.02986,-1.60235 -1.97743,-2.9029 -2.10547,-2.88867 -0.12803,0.0142 -0.60701,1.01717 -1.06445,2.22852 -0.45743,1.21137 -3.34853,5.34694 -6.42383,9.18945 -12.1474,15.17785 -18.31631,33.21022 -18.56836,54.26563 -0.18922,15.80683 2.98603,27.4362 10.98438,40.21289 6.1391,9.80668 14.36656,20.17651 25.98242,28.5039 2.80182,2.00863 3.77661,4.34184 5.28125,12.64844 0.4003,4.71803 1.73708,21.3 1.02735,22.38281 l -11.09571,6.89453 -84.10937,-52.09375 1.23242,-98.55468 85.9668,-48.20899 84.73242,50.3418 -1.23242,98.55469 -42.11914,23.9414 7.35006,13.5288 51.89017,-29.7163 V 783 Z"
       sodipodi:nodetypes="ccccccssssssssssssssssccccccccccccc" />
    <g
       id="g1876"
       style="fill:#333333">
      <path
         sodipodi:nodetypes="csccsccccsccccsccccccscccccsscccccsscsscsscsssccccccccsscccsscsccsccsscsccccc"
         inkscape:connector-curvature="0"
         id="path736"
         d="m 493.33285,622.01356 c -5.1515,-0.5812 -11.6317,-3.7474 -18.95647,-9.26207 -10.12448,-7.62252 -18.63089,-17.38571 -19.26638,-22.11292 -0.18746,-1.39571 0.66456,-4.27833 1.59859,-5.40745 0.37225,-0.45002 1.7611,-1.50687 3.08633,-2.34856 4.34196,-2.75769 4.87639,-3.59451 5.10114,-7.98751 0.16974,-3.3178 0.50856,-4.63291 1.5407,-5.98036 1.03066,-1.34552 2.05828,-2.05634 3.97874,-2.75217 2.05298,-0.74385 3.60552,-0.5285 6.45677,0.89567 3.26473,1.63068 4.2763,1.92039 5.9185,1.69508 0.80987,-0.11112 2.26688,-0.65931 3.23781,-1.21821 3.23593,-1.86269 4.71915,-2.2969 6.7979,-1.99004 2.38175,0.35158 3.79505,1.27209 5.29762,3.45045 1.4472,2.09808 3.6696,7.4118 5.11046,12.21902 1.34103,4.47417 3.25109,16.25231 3.34248,20.61107 0.138,6.58167 -1.07821,12.51766 -3.25379,15.88064 -1.94406,3.00514 -6.00679,4.75678 -9.9904,4.30736 z M 520.66584,588.88 c 0,0 -1.50195,-2.49225 -1.50443,-8.53749 -0.004,-9.01454 1.37415,-15.95133 3.54551,-17.84824 2.33558,-2.04041 4.98321,-2.4356 8.92348,-1.33194 1.21417,0.34009 2.38162,0.3991 3.86616,0.19542 2.04843,-0.28105 2.21877,-0.37306 4.62631,-2.49978 3.69031,-3.25982 5.57617,-3.83636 8.90562,-2.7226 2.94505,0.98517 3.79025,1.99045 5.28491,6.28583 0.0871,4.82687 5.68676,4.78871 9.91846,6.15921 2.33288,3.78181 -1.85063,8.43197 -0.68831,10.79557 0.61966,1.26009 -13.1183,-6.73482 -16.2618,-4.73891 -3.39744,2.15715 -0.28226,-0.25091 -7.54573,-0.39813 l -6.2407,-0.12649 z m -72.3754,-6.39477 c -1.82297,-4.69262 -3.97418,-13.13826 -4.72151,-18.53669 -1.08291,-7.81923 0.0119,-17.13402 3.33121,-28.35432 1.4943,-5.05116 2.89935,-8.86138 7.90604,-21.43961 5.13999,-12.91314 6.79636,-17.78604 7.71501,-22.69696 1.29339,-6.91418 1.32314,-9.44627 0.23228,-19.76877 -1.37274,-12.9898 -1.37583,-17.20991 -0.0167,-22.81859 1.79214,-7.3955 6.27824,-13.80573 12.3179,-17.60118 5.64462,-3.54719 13.05322,-5.64797 20.11001,-5.70238 12.83539,-0.099 22.84214,5.82464 28.21465,16.70196 2.12592,4.3042 3.08628,7.97589 4.87452,18.63665 1.67637,9.99373 2.3214,12.50896 4.55249,17.75194 2.54607,5.98316 5.1519,9.98681 13.9328,21.40652 13.72537,17.85009 18.73672,25.79884 22.50829,35.70155 2.59528,6.81419 4.00242,18.86529 3.29564,28.22468 -0.13089,1.73335 -0.27537,3.20366 -0.32106,3.26736 -0.0457,0.0637 -1.37776,-0.86924 -2.96015,-2.0732 -2.14796,-1.63429 -3.49409,-2.38164 -5.31181,-2.94901 l -2.43474,-0.75999 -0.63477,-1.9207 c -0.90337,-2.73341 -3.28461,-6.08998 -5.61902,-7.92054 l -1.97446,-1.54829 -0.4294,-3.1297 c -1.18559,-8.64118 -6.10992,-17.25951 -18.56418,-32.49018 -9.78793,-11.96994 -10.88941,-13.61817 -13.69953,-20.49978 -1.04808,-2.56663 -1.72196,-4.87662 -2.38877,-8.18851 -0.87776,-4.35965 -1.00912,-4.73185 -2.38898,-6.76898 -1.67897,-2.47866 -6.05196,-6.20967 -7.1083,-6.06473 -0.83534,0.11461 -2.35945,2.21498 -3.57171,4.92215 -3.61922,8.08234 -6.51648,9.71946 -11.2334,6.34758 -0.77134,-0.55141 -2.7056,-2.41899 -4.29835,-4.1502 -3.0677,-3.3344 -4.16343,-4.10955 -5.14775,-3.64172 -1.10323,0.52436 -4.14263,5.19927 -4.94121,7.60013 -0.70417,2.11693 -0.74285,2.67687 -0.44319,6.41341 0.51446,6.41466 -0.30246,13.76291 -2.12232,19.09046 -0.47536,1.3916 -1.82291,4.73002 -2.99455,7.41871 -5.63701,12.93585 -7.48754,17.49471 -9.03199,22.25071 -2.73098,8.40975 -3.63604,15.13413 -2.82884,21.01741 l 0.35296,2.57255 -1.48698,2.05916 c -1.68295,2.33052 -2.8058,5.28739 -3.02902,7.97649 -0.0834,1.00457 -0.18272,2.06848 -0.22076,2.36425 -0.038,0.29578 -1.07049,1.21604 -2.29434,2.04503 -2.16782,1.4684 -4.67596,4.24451 -5.76589,6.38192 l -0.52359,1.02681 z"
         style="fill:#333333;stroke-width:0.325257" />
      <path
         inkscape:connector-curvature="0"
         id="path749"
         d="m 489.42629,450.48847 c -0.40755,0.0294 -1.80689,0.13869 -3.10964,0.24302 -6.84373,0.54812 -14.19556,0.4219 -19.05241,-0.32709 -2.03067,-0.31316 -5.33278,-1.20561 -6.53999,-1.76754 -1.84717,-0.85983 -2.77313,-1.82517 -2.94378,-3.06901 -0.24768,-1.80519 1.12892,-3.44577 4.62209,-5.50847 2.14371,-1.26584 3.61,-1.95195 6.45148,-3.01881 1.16433,-0.43717 2.13128,-0.81394 2.14877,-0.83727 0.0175,-0.0233 1.65592,-6.48194 3.64095,-14.35248 1.99399,-7.90613 3.85181,-14.95125 4.15142,-15.74285 0.82188,-2.1715 1.94564,-4.01846 3.58049,-5.88469 1.39632,-1.59398 12.85435,-12.26338 13.6513,-12.71173 0.27513,-0.15479 0.46139,-0.17931 0.80711,-0.10569 0.89892,0.19002 0.88719,0.0824 0.83515,7.66306 l -0.0478,6.96121 0.39935,1.69639 c 0.21966,0.933 0.57211,2.13967 0.78324,2.68146 0.35442,0.90951 13.68286,23.80985 13.96771,23.99869 0.0697,0.0461 1.14354,0.17215 2.38635,0.27989 3.03072,0.26272 4.62624,0.52821 7.03297,1.17025 3.91964,1.04563 5.68724,2.25484 5.93492,4.06001 0.17066,1.24384 -0.46107,2.42291 -2.00841,3.74847 -1.01125,0.86632 -3.95096,2.61515 -5.82225,3.46367 -4.32756,1.96227 -10.84308,3.92588 -17.96536,5.41429 -1.89251,0.3955 -11.50699,1.8453 -12.9036,1.94578 z"
         style="fill:#333333;stroke-width:0.138042" />
    </g>
    <g
       id="g762"
       transform="matrix(0.1328374,0,0,0.1328374,579.49401,454.86999)">
      <path
         style="fill:#55ddff;stroke-width:1.8571"
         d="m 862.48821,886.74983 c -58.30615,-38.43541 -60.86639,-42.92543 -81.54845,-130.9632 -0.79004,-28.6514 1.34356,-47.38027 9.64598,-84.67492 11.35389,-51.00164 28.61369,-98.72846 54.95412,-151.95933 5.55332,-11.22255 7.17356,-15.97554 5.94734,-17.44608 -0.92694,-1.11165 -8.23246,-5.82895 -16.23444,-10.48291 -27.57494,-16.03757 -73.8838,-47.73495 -97.28691,-66.59078 C 627.07285,335.28659 589.87679,247.8178 634.4919,181.30737 673.94589,122.49085 771.11772,82.121009 911.29626,66.309578 c 19.04735,-2.148423 37.42114,-3.83318 40.83084,-3.743902 10.8031,0.282897 11.308,-0.971491 12.4538,-30.940586 3.9284,-102.756168 26.6732,-189.50502 63.8637,-243.57716 29.8939,-43.46355 65.7459,-64.44518 112.1007,-65.60442 16.6392,-0.41607 53.9591,8.13402 71.8543,16.4614 63.4583,29.53188 128.7077,87.98685 191.78,171.809887 8.2236,10.929357 15.8399,20.07502 16.9247,20.323644 1.0848,0.248598 8.8444,-3.112355 17.2434,-7.468796 90.6059,-46.996125 177.1689,-72.655075 251.3636,-74.509215 23.6551,-0.59116 68.4051,9.5852 85.698,19.48813 50.281,28.794 71.2927,85.646476 61.983,167.712264 -2.1188,18.679246 -5.1505,32.660801 -14.2687,65.806776 -12.0382,43.76072 -20.8839,67.81945 -39.2935,106.87058 -5.978,12.68068 -12.0913,26.1506 -13.5852,29.93313 l -2.716,6.87733 18.9913,11.19126 c 106.377,62.68638 182.9007,136.30304 207.454,199.57318 25.7169,66.26818 3.9022,119.39383 -66.5361,162.03787 -54.1315,32.7722 -133.765,54.75276 -231.9658,64.02825 l -35.1654,3.32147 -1.6346,7.04324 c -0.8994,3.8737 -2.1949,18.62813 -2.8793,32.78745 -2.1806,45.10984 -5.0783,65.80445 -15.7646,112.58991 -8.0667,35.31714 -12.0798,49.49201 -18.5718,65.59738 -27.2846,67.68792 -65.7983,107.64315 -113.5669,117.81775 -9.4776,2.0186 -23.3663,3.4899 -30.8638,3.2695 -77.2156,-2.2707 -172.0855,-71.2218 -260.9329,-189.6454 l -15.1323,-20.16936 -5.2584,2.34701 c -2.8922,1.29088 -17.6485,8.36122 -32.792,15.71188 -98.6236,47.87216 -191.07537,65.40313 -246.04929,39.43717 -20.02192,-1.64697 -38.14116,20.23761 -54.37271,14.06271 z m 56.66381,-50.13097 c 33.32168,2.46447 83.09478,-6.49197 133.38338,-24.00182 42.6214,-14.84021 109.7556,-45.50324 110.9274,-50.66512 0.2575,-1.13349 -5.1725,-11.72011 -12.0663,-23.52576 -17.0464,-29.19237 -42.4599,-77.94026 -56.508,-108.39341 -6.384,-13.83902 -12.8855,-26.19944 -14.4475,-27.46747 -1.5619,-1.26803 -11.775,-5.39223 -22.6958,-9.16482 -35.4356,-12.24128 -87.0013,-33.45252 -134.67515,-55.39767 -6.61102,-3.04319 -10.88076,-4.19761 -12.35685,-3.34094 -6.02178,3.49489 -33.58052,67.34087 -46.74904,108.30454 -18.6084,57.8855 -23.97491,117.53498 -13.32722,148.13285 10.20147,29.31558 30.34201,42.69641 68.51508,45.51962 z m 572.17038,125.94619 c 27.7649,-6.54356 52.4186,-36.35534 71.1461,-86.03152 8.9166,-23.65287 22.3081,-83.15898 25.3106,-112.47099 3.1624,-30.8733 4.833,-71.1668 3.0661,-73.94703 -1.1979,-1.88492 -8.7437,-2.60823 -30.5226,-2.92581 -33.2881,-0.48539 -88.3753,-3.97183 -123.0049,-7.78494 -13.124,-1.44511 -25.7859,-2.66368 -28.1377,-2.70797 -2.6602,-0.0502 -14.6115,7.911 -31.6268,21.06787 -33.3711,25.80302 -63.2928,47.0764 -94.8334,67.42281 -13.1079,8.45587 -24.1361,16.58189 -24.5069,18.05783 -0.8157,3.24622 26.1082,38.90778 49.6503,65.76372 43.1807,49.2588 86.1865,84.42582 125.7494,102.82853 17.2431,8.02066 46.2871,13.41959 57.7098,10.7275 z M 1288.7821,685.67904 c 14.3646,-10.31287 26.355,-19.69658 26.6451,-20.85274 0.4003,-1.59564 -17.3488,-6.19881 -73.6707,-19.10615 -42.7951,-9.80738 -74.3664,-16.33357 -74.5957,-15.41991 -0.7861,3.13159 27.6997,56.73559 47.9252,90.18487 l 5.8727,9.71252 20.853,-12.88391 c 11.469,-7.08623 32.6057,-21.32181 46.9704,-31.63468 z m 54.8821,-80.8002 c 18.3932,3.16416 35.4124,5.79481 37.8208,5.84594 7.3737,0.15647 67.5336,-54.63562 118.9888,-108.3717 30.3617,-31.70767 60.8886,-66.81033 62.0004,-71.29347 1.1255,-4.54484 -15.1938,-69.63584 -27.2088,-108.51688 -16.1517,-52.26782 -43.2606,-125.54656 -47.3553,-128.00768 -6.0443,-3.63291 -73.3948,-21.73134 -124.403,-33.42959 -52.8498,-12.12152 -116.7477,-24.11523 -126.17,-23.68407 -3.9287,0.17982 -42.9101,34.1469 -75.5586,65.83939 -42.7665,41.51409 -102.4495,106.6295 -104.2302,113.717 -0.8182,3.25715 9.7338,47.10362 19.9414,82.86199 17.9051,62.72297 50.4117,151.38026 56.569,154.28409 16.7883,7.91747 154.6647,41.30358 209.6055,50.75498 z m -94.801,-120.1886 c -22.5009,-11.55806 -35.9815,-23.83653 -50.4522,-45.95307 -21.8195,-33.34779 -25.8475,-61.82159 -14.2316,-100.60198 9.8626,-32.92611 27.0841,-54.34441 57.6398,-71.68627 18.7844,-10.66082 34.1716,-15.62314 54.2067,-17.48122 79.282,-7.3528 147.2544,51.80963 146.076,127.14285 -0.2906,18.58204 -9.1631,48.07751 -18.9429,62.97279 -21.9448,33.42418 -60.4728,55.99301 -101.4538,59.42956 -22.9106,1.92117 -53.4888,-3.88139 -72.842,-13.82266 z m -200.7735,37.68295 c 0.8482,-0.79871 -1.5354,-9.92073 -5.2969,-20.27116 -9.2896,-25.56098 -24.2411,-72.61271 -30.9285,-97.32968 -3.0254,-11.18301 -6.3948,-20.26094 -7.4874,-20.17316 -2.6572,0.21355 -11.4931,12.45027 -38.0596,52.70858 -12.2247,18.52487 -22.3932,35.41891 -22.5969,37.54234 -0.3159,3.29606 2.193,5.08111 17.1516,12.20328 13.3241,6.34392 76.4039,33.48758 84.4306,36.331 0.6847,0.24262 1.9389,-0.21251 2.7871,-1.0112 z m 458.1859,101.19187 c 36.7726,2.45409 78.3753,3.09578 81.6709,1.25973 2.4017,-1.33782 2.4502,-7.42768 0.2624,-32.79 -3.8828,-45.00917 -8.2673,-76.1181 -10.8097,-76.70077 -1.2162,-0.2787 -11.6964,9.66027 -23.2895,22.08656 -11.5931,12.42631 -34.6948,35.75531 -51.337,51.84223 -16.642,16.08694 -30.0072,29.96945 -29.7,30.85011 0.307,0.88064 2.4769,1.65549 4.8218,1.72188 2.3449,0.0665 15.1164,0.84504 28.3811,1.73026 z M 902.70802,417.86537 c 18.95661,-29.79188 49.46658,-73.07154 70.96588,-100.66832 l 13.0929,-16.80648 -2.759,-16.1509 c -7.3999,-43.31579 -12.8159,-83.26213 -16.0481,-118.36756 -1.9564,-21.24726 -4.1549,-39.55487 -4.8855,-40.68357 -1.546,-2.3881 -49.95567,1.59099 -82.525,6.78325 -89.50643,14.2693 -156.93494,41.38941 -186.33683,74.9457 -18.97012,21.65046 -18.12094,47.86173 2.66543,82.27755 28.27945,46.82186 81.80702,94.39669 160.98038,143.07775 12.59241,7.74265 23.8304,13.96218 24.97322,13.82112 1.14281,-0.14106 10.08734,-12.84387 19.87662,-28.22854 z m 780.76608,204.34692 c 123.7143,-11.38934 220.8148,-46.56746 249.0209,-90.21657 30.9468,-47.89039 -37.3155,-135.18081 -169.5923,-216.8666 -11.8987,-7.34796 -22.848,-13.4017 -24.3315,-13.45274 -1.6406,-0.0564 -12.9244,15.40362 -28.811,39.47416 -25.4449,38.55303 -41.1048,60.54326 -64.8433,91.05597 -11.3159,14.54539 -11.5881,15.11935 -10.3375,21.80108 8.4264,45.01876 19.0069,129.42782 20.8228,166.12205 0.1838,3.71417 5.8132,4.1318 28.0719,2.08265 z M 1057.4453,219.0646 c 22.8259,-24.50783 49.5182,-51.47344 70.353,-71.07306 11.0645,-10.40865 20.2608,-19.49469 20.4357,-20.19125 0.4933,-1.96344 -15.7703,-3.30045 -65.87,-5.41501 -25.3784,-1.07113 -47.6811,-1.33967 -49.5618,-0.59678 -3.0348,1.19896 -3.1234,4.75044 -0.7879,31.60369 2.4766,28.47767 7.7951,73.89302 9.0871,77.59766 1.225,3.51252 3.537,1.8255 16.3439,-11.92525 z m 565.5375,136.13028 c 9.6335,-12.20362 52.7561,-78.20742 53.7945,-82.33837 0.8406,-3.34517 -0.9103,-4.69575 -14.3786,-11.09068 -34.5029,-16.38227 -88.2783,-38.45145 -90.5213,-37.14956 -0.7574,0.43965 2.7483,12.44703 7.7909,26.68311 10.0241,28.30021 25.7166,78.72104 30.5574,98.18309 1.6858,6.77746 3.9175,12.51803 4.9592,12.75677 1.0419,0.2388 4.5509,-2.93121 7.7979,-7.04436 z M 1053.7961,59.871156 c 38.9664,0.227313 91.0124,3.5591 141.4579,9.055552 9.377,1.021693 18.1753,1.530329 19.5517,1.130272 1.3765,-0.399993 12.8202,-8.821038 25.4309,-18.713351 28.1714,-22.098663 64.3306,-47.8680808 97.3734,-69.394737 13.7327,-8.946412 25.3974,-16.883274 25.9219,-17.637432 0.5245,-0.754134 -6.5608,-11.204835 -15.7449,-23.223739 -47.7377,-62.472421 -94.6507,-107.730451 -138.6571,-133.765621 -70.0875,-41.46554 -108.8272,-29.05843 -144.4129,46.25105 -10.2321,21.65428 -28.4053,93.95535 -31.5733,125.611314 -3.0457,30.4370321 -5.147,71.550006 -3.8886,76.083816 1.2919,4.654213 0.2626,4.46115 24.5405,4.60278 z m 657.9458,151.121684 c 3.9618,-5.53544 24.0621,-49.79165 33.8437,-74.51553 10.6274,-26.86213 26.4415,-87.577017 28.5616,-109.657212 3.3304,-34.6840138 -0.7376,-67.6037 -10.526,-85.178695 -2.3582,-4.234271 -8.0149,-10.74862 -12.5704,-14.476338 -11.1052,-9.087377 -36.7069,-16.369694 -59.1009,-16.811075 -42.7805,-0.84316 -102.5279,13.683025 -165.71,40.288582 -27.0939,11.409122 -67.5836,31.520332 -69.0586,34.301497 -0.6352,1.197213 4.2278,11.2082402 10.806,22.2466621 16.1504,27.1003309 40.2823,73.2185899 56.1782,107.3618589 7.1951,15.45375 13.9153,28.81963 14.9346,29.70205 1.0191,0.88238 12.3713,5.4166 25.2274,10.07607 35.9708,13.03705 84.7548,32.94907 113.8753,46.48019 32.5548,15.12681 30.4561,14.4897 33.5391,10.18194 z m -258.5495,-94.52723 c 0.5314,-2.1156 -28.0541,-56.372758 -41.8076,-79.353063 -5.8515,-9.777322 -11.7874,-18.040079 -13.1908,-18.361699 -4.2749,-0.979689 -91.9538,58.669255 -93.2848,63.462755 -0.4002,1.441523 19.5967,6.580983 73.6616,18.931847 44.4121,10.14584 74.376,16.29747 74.6216,15.32016 z"
         id="path795"
         inkscape:connector-curvature="0"
         sodipodi:nodetypes="cccccscsscsscccscsccccccsccscccccccccccccccsccccsscsscssccsscccsccsscsccccsscccccccssscsscccscccscsccccccccccssccccccccccsccscccccccccccccssccccccsccssccsccccsscccccccsccsccccccccscsccs" />
    </g>
    <g
       id="g944"
       style="fill:#2a7fff"
       transform="translate(5.3013324,0.94583319)">
      <path
         id="path938"
         d="m 830.86523,800.86719 -0.35156,1.98828 c -2.93836,16.63915 -6.28509,25.70009 -11.55859,31.29687 -2.11068,2.24016 -5.5786,4.40664 -8.54492,5.33789 -4.10706,1.28931 -9.24919,1.6224 -15.87696,1.02735 -1.18791,-0.10666 -2.48497,-0.21458 -2.88281,-0.23828 -0.39795,-0.0237 -7.39687,-1.0581 -15.55273,-2.29883 -15.01935,-2.28494 -17.74581,-2.63081 -21.87305,-2.7793 -4.03091,-0.14505 -6.62847,0.0895 -9.23828,0.83594 -8.253,2.36018 -12.64221,10.10083 -16.39844,28.91992 -1.00414,5.04563 -4.75772,28.37758 -4.76172,29.61719 -0.007,2.02917 0.55637,4.20328 1.6211,6.25781 0.67691,1.30636 2.48912,3.74107 3.72265,5.00195 6.38047,6.52188 16.9509,11.62143 30.35742,14.64454 h 0.004 c 2.02374,0.45633 8.647,1.42329 8.99219,1.3125 0.12707,-0.0409 0.91131,-0.0104 1.74218,0.0684 2.14079,0.20336 6.45455,0.29518 8.98438,0.1914 14.49236,-0.59464 25.33472,-5.23964 28.86328,-12.36719 l 0.60156,-1.21875 1.50196,-9.32617 1.50195,-9.32617 -21.27344,-3.49805 -21.27539,-3.5 0.35547,-2.20703 0.35547,-2.20703 32.97266,5.23633 c 35.99624,5.71696 33.13027,5.32547 35.41796,4.85351 6.65597,-1.37311 13.77513,-9.20355 18.49805,-20.3457 2.80419,-6.61525 5.1366,-15.20776 5.78516,-21.30859 1.16511,-10.95947 0.60548,-20.12722 -1.70313,-27.91992 -2.03786,-6.87863 -5.51417,-11.99801 -9.6289,-14.17969 -1.71252,-0.90757 -2.57825,-1.09399 -11.73633,-2.52344 z m -40.875,94.62304 c 1.05398,-0.0192 2.11561,0.1677 3.1211,0.58789 1.79732,0.751 3.57728,2.51199 4.36523,4.32032 1.23402,2.83216 0.66822,6.33519 -1.39258,8.63672 -1.26777,1.41587 -3.41425,2.51622 -5.26562,2.69922 -0.83922,0.0832 -2.42607,-0.0391 -3.03906,-0.23438 -4.68207,-1.49151 -7.16409,-6.61379 -5.32422,-10.98828 1.28231,-3.0488 4.37323,-4.96382 7.53515,-5.02149 z"
         style="fill:#2a7fff;stroke-width:0.144219"
         inkscape:connector-curvature="0" />
      <path
         id="path934"
         d="m 776.29883,749.45117 c -6.04837,0.0826 -11.46248,0.84369 -16.32813,2.28516 -6.8786,2.03783 -11.99799,5.51419 -14.17968,9.6289 -0.90926,1.71219 -1.09417,2.57824 -2.52344,11.73633 l -1.3457,8.6211 21.27539,3.5 21.27539,3.49804 -0.35547,2.20703 -0.35547,2.20704 -32.97461,-5.23633 c -30.39468,-4.82742 -28.52761,-4.92725 -29.28516,-4.82227 -3.13073,0.4339 -9.64246,0.98724 -12.39648,3.06445 -7.71021,5.81543 -13.73055,17.46745 -17.16211,33.21876 -1.00312,4.6045 -1.57438,11.68579 -1.42969,17.70117 0.37968,15.79402 5.60754,27.58648 13.49219,30.4375 0.7491,0.27029 2.99168,0.67169 9.86523,1.75976 l 8.90235,1.41016 0.35156,-1.98828 c 1.55377,-8.78572 3.37203,-16.02354 5.24805,-20.89258 5.05746,-13.12632 12.73848,-18.04002 26.93554,-17.23047 3.86061,0.22014 6.03467,0.5055 19.66993,2.58203 14.91541,2.27149 18.23807,2.69881 22.73437,2.91602 9.98416,0.48235 15.43694,-1.48208 19.4375,-7.00196 3.33884,-4.60683 5.66784,-11.2322 7.89844,-22.47461 1.03997,-5.2226 4.76553,-28.37544 4.76953,-29.61718 0.0299,-9.22711 -11.26318,-18.78458 -28.24609,-23.9043 -5.47628,-1.65089 -9.84466,-2.61553 -13.68165,-3.02344 -4.10575,-0.43648 -7.96277,-0.63161 -11.59179,-0.58203 z m -12.65821,10.32617 c 1.05398,-0.0192 2.11561,0.16772 3.1211,0.58789 1.79732,0.75106 3.57727,2.51203 4.36523,4.32032 1.23401,2.83218 0.67018,6.33517 -1.39062,8.63672 -1.26777,1.41584 -3.41426,2.51622 -5.26563,2.69921 -0.83917,0.0829 -2.428,-0.0391 -3.04101,-0.23437 -4.68207,-1.49149 -7.16407,-6.61574 -5.32422,-10.99023 1.28233,-3.04882 4.37323,-4.96186 7.53515,-5.01954 z"
         style="fill:#2a7fff;stroke-width:0.144219"
         inkscape:connector-curvature="0" />
    </g>
    <path
       style="opacity:0.99;fill:#ffffff;fill-opacity:1;stroke-width:0.307981"
       d="m 537.47035,793.89147 c -5.11078,-7.36115 -23.91106,-35.62428 -23.91106,-36.06646 0,-0.1744 1.50951,-3.58841 2.93098,-7.42202 9.23203,-24.89807 12.19278,-41.34459 12.19358,-61.91893 8.3e-4,-20.9449 -3.52607,-39.07672 -13.99595,-80.72655 l -0.86173,-7.42353 6.4695,-9.05345 c 9.61911,-13.46104 14.72292,-17.28539 15.10397,-17.28373 0.33202,10e-4 5.48374,1.80835 23.80461,7.38044 20.56136,6.25351 36.92466,10.07439 49.90998,11.5929 4.63269,0.54176 13.93773,0.72563 18.55124,0.26254 14.57707,-1.46323 32.40372,-6.11646 55.56327,-13.51431 12.095,-3.86351 17.89724,-5.2246 18.51803,-5.2246 0.77923,0 5.78419,5.81648 14.71137,16.05237 4.06264,4.65821 7.63402,8.85583 7.9364,9.19496 0.53181,0.59643 0.1667,1.22295 -3.11306,14.33045 -9.06609,36.2324 -12.11854,55.75454 -12.11253,74.98337 0.003,9.49706 0.70406,16.426 2.89444,27.20187 2.3775,11.69641 5.79515,20.4602 10.0341,31.83117 1.58987,4.26482 2.75697,8.81424 2.75697,9.14592 0,0.98315 -9.91763,18.66574 -19.00696,32.45379 -3.15938,4.79263 -5.77847,4.8507 -6.38282,4.8507 -1.68775,0 -7.36266,-0.52166 -19.10732,-3.39442 -21.81832,-5.33681 -29.37974,-7.22246 -45.76158,-8.03235 -8.13298,-0.40208 -31.32389,-0.20228 -37.57367,0.32372 -14.51383,1.22151 -22.99834,3.90173 -44.98757,9.57376 -6.87257,1.77275 -12.96289,2.52497 -13.20467,2.51854 -0.24179,-0.006 -0.86416,-0.92267 -1.35952,-1.63615 z"
       id="path967"
       inkscape:connector-curvature="0"
       sodipodi:nodetypes="cscsccscsccssscscssscssscscc" />
    <path
       id="path108"
       style="fill:#000000;fill-opacity:1;stroke-width:1.19165"
       d="m 381.31055,319.68164 -48.38867,54.06641 c -57.43537,64.17299 -54.8624,61.16566 -54.0879,63.18359 0.33914,0.88359 5.80296,3.38078 12.14063,5.54883 49.29758,16.86415 84.61621,50.20668 93.95703,88.70117 4.40136,18.13843 3.40164,50.80585 -2.45312,80.16211 -9.79487,49.11214 -34.01991,103.98532 -59.37696,134.49609 -2.65761,3.19779 -23.80045,22.4277 -46.98437,42.73438 -23.18391,20.30668 -42.44135,37.67157 -42.79297,38.58789 -0.37641,0.98087 5.66443,9.44185 14.6875,20.57422 69.91404,86.25767 107.1809,131.55628 108.71875,132.14648 1.25103,0.48 6.91632,-4.6603 18.15234,-16.4707 l 16.33203,-17.16797 9.47461,9.05274 c 19.94401,19.05439 41.70189,33.03611 67.61133,43.44531 20.16435,8.10041 58.76706,27.53391 71.64258,36.06641 15.56108,10.3121 24.84548,21.4512 47.6543,57.1758 8.35945,13.093 10.06097,15.059 15.35937,17.7539 3.27703,1.6668 7.29899,3.472 8.9375,4.0117 5.28296,1.7401 14.80673,0.2345 22.23242,-3.5137 6.27399,-3.1676 7.7439,-4.6468 12.82227,-12.914 9.53218,-15.5181 28.32808,-42.1612 34.53516,-48.9532 11.3564,-12.4272 44.78913,-31.2752 87.04882,-49.07418 29.64172,-12.4845 48.46687,-24.52305 68.99219,-44.12304 l 9.34766,-8.92774 16.33203,17.16797 c 11.36087,11.9416 16.89322,16.95234 18.17383,16.46094 2.76812,-1.0622 123.16409,-149.57726 123.16409,-151.92969 0,-1.18455 -17.90914,-17.73967 -42.84964,-39.61328 -23.5668,-20.66876 -45.34826,-40.68416 -48.4043,-44.47852 -22.39042,-27.80013 -44.65271,-76.60355 -55.28711,-121.20312 -7.12461,-29.87989 -9.68878,-65.95842 -6.05468,-85.20313 6.39936,-33.88838 28.29586,-61.17349 66.26171,-82.57031 7.37877,-4.15854 30.74184,-13.79741 36.51954,-15.06641 4.6422,-1.01958 5.77532,-3.65479 3.04492,-7.08398 -1.1487,-1.44278 -24.28362,-27.40324 -51.41016,-57.68945 -45.87445,-51.21778 -49.59246,-55.06641 -53.19531,-55.06641 -9.53741,0 -41.90739,7.71355 -59.8418,14.25977 -22.95114,8.37738 -50.83229,25.00501 -93.57422,55.80468 l -15.2207,10.96875 h -22 -22.00195 l -10.13868,13.70313 c -5.57699,7.53716 -10.62573,13.70312 -11.21874,13.70312 -0.59308,0 -5.73434,-6.16596 -11.42383,-13.70312 L 597.4043,401.00195 h -21.90821 -21.91015 l -13.03125,-9.4707 c -30.7953,-22.37829 -61.72713,-41.92168 -80.20313,-50.67383 -19.47128,-9.22364 -52.6833,-18.71759 -71.67187,-20.48828 z m 3.29297,7.20117 6.56836,0.82227 c 17.58449,2.19704 48.27941,11.15506 65.21289,19.0332 16.53871,7.69448 48.75732,28.141 81.4375,51.67969 l 13.51367,9.73242 h 21.21289 21.21484 l 11.44922,15.32031 11.44727,15.32032 v 33.5371 c 0.27075,12.37482 -0.0859,25.91689 0.0488,37.11133 -0.003,0.007 0.007,-0.006 0,0.006 0.10751,9.75759 0.97859,78.43649 2.38477,79.98047 -4.82581,-5.4e-4 -9.46279,-0.41768 -14.37891,-1.68945 L 546.35938,573.375 c -4.35681,-1.32479 -8.55716,-2.3405 -12.62696,-3.09766 l -20.92578,23.94532 -4.34375,5.30859 4.48828,16.63672 c 4.95668,18.37325 10.21332,46.15512 11.4336,60.42969 l 0.78906,9.23437 c -56.20089,-9.5e-4 -105.79782,-0.0117 -158.63086,-0.0117 l 3.50586,-8.49804 c 5.74751,-13.93786 12.98008,-36.43697 16.61328,-51.67969 5.7468,-24.11025 7.60507,-39.55949 7.66797,-63.75391 0.0495,-19.00938 -0.30928,-23.48951 -2.60352,-32.5332 -3.14004,-12.37754 -8.75791,-25.00096 -15.8125,-35.53516 -6.69208,-9.99285 -24.60833,-27.53792 -35.74804,-35.00781 -11.07198,-7.42451 -33.11441,-18.60055 -43.51172,-22.06055 -7.07883,-2.35569 -7.68621,-2.80597 -6.17774,-4.57617 0.92023,-1.07991 22.47294,-25.20812 47.89649,-53.61914 z m 468.89453,0 46.23242,51.65625 c 25.42749,28.4113 46.98013,52.54057 47.89453,53.6211 1.493,1.7641 1.01549,2.17545 -4.66992,4.02929 -21.79931,7.108 -49.41715,23.92501 -65.42774,39.83789 -22.91891,22.77906 -33.08816,46.48544 -34.34375,85.28125 0.23043,7.51037 1.03896,57.2529 24.79493,115.8711 l 3.56445,8.63867 -158.68164,-0.002 0.77734,-8.04297 c 1.14041,-11.78294 4.58787,-34.57842 5.40235,-35.72461 0.28996,-0.40767 10.02734,-43.14258 10.02734,-43.14258 0,0 -8.48329,-10.03866 -14.57422,-17.10742 -8.71519,-10.11429 -11.55714,-12.69801 -13.33789,-12.13281 -20.13756,7.57597 -30.31332,11.03765 -57.61914,16.69921 -9.80148,1.98458 -17.25635,3.04171 -24.23633,3.06446 1.38743,-1.0522 1.63409,-14.17139 2.13281,-77.00977 l 0.59571,-75.07422 11.19726,-14.59765 11.19727,-14.59766 h 21.12695 21.125 l 14.79883,-10.53516 c 31.27786,-22.27079 61.12287,-41.52092 75.84766,-48.92187 16.07894,-8.08157 51.26712,-18.69902 69.54296,-20.98242 z M 535.52344,574.66992 c 1.31081,0.23284 13.29365,3.95394 24.3125,7.31836 25.079,7.65746 46.53314,12.06145 58.76367,12.0586 15.43729,-0.003 37.84334,-4.774 67.01953,-14.26954 8.10531,-2.63791 15.17241,-4.79492 15.70508,-4.79492 0.5327,0 5.92928,5.69763 11.99219,12.66211 l 11.02343,12.66211 -4.96484,19.81055 c -9.53529,38.0393 -12.54842,63.78198 -9.85156,84.1582 1.81577,13.71907 6.3333,31.62406 10.84765,42.98828 1.94659,4.90026 3.53907,9.32908 3.53907,9.8418 0,0.95142 -22.02682,35.80294 -23.66993,37.45117 -0.49723,0.49876 -7.03795,-0.68931 -14.53515,-2.63867 -28.41085,-7.38719 -40.0756,-8.95313 -66.66016,-8.95313 -26.64236,0 -38.85258,1.64372 -66.37304,8.93555 -7.34042,1.94491 -13.56637,3.53516 -13.83399,3.53516 -0.26762,0 -6.00084,-8.44493 -12.74023,-18.76758 L 513.8457,757.90039 516.54492,750.75 c 16.38875,-43.41355 16.8686,-71.7486 2.21094,-130.61914 l -4.92969,-19.79688 10.60352,-12.65429 c 8.00744,-9.55552 11.09375,-13.00977 11.09375,-13.00977 z m -170.94141,115.9082 h 160.32422 l -0.0117,3.2754 c -0.0264,12.33882 -6.53661,39.86805 -13.15234,55.61718 l -3.46485,8.24805 2.61524,4.26367 c 10.84857,17.69381 25.05865,38.22662 26.45703,38.22656 0.93008,0 10.44228,-2.12749 21.13672,-4.72656 10.69445,-2.59909 25.14349,-5.54707 32.10937,-6.55273 7.59457,-1.09637 17.81376,-1.62699 28.07227,-1.68164 -0.75843,1.6641 -0.81836,63.3956 -0.81836,164.89843 0,123.62432 -0.30414,155.50622 -1.48828,155.49022 -0.81926,-0.011 -4.37033,-1.4859 -7.89063,-3.2773 -5.9137,-3.0093 -7.21587,-4.5274 -17.11132,-19.9414 -15.72736,-24.4985 -29.29525,-42.0338 -37.53321,-48.5059 -15.0756,-11.8441 -50.14293,-30.4981 -80.16601,-42.64648 -29.46375,-11.9221 -47.83672,-23.84931 -72.37305,-46.97851 -5.39653,-5.087 -10.33611,-9.06575 -10.97852,-8.84375 -0.64239,0.222 -7.97861,7.64223 -16.30078,16.49023 -8.32214,8.8479 -15.49764,16.23738 -15.94531,16.42188 -0.44766,0.1845 -14.43617,-16.43735 -31.08594,-36.93945 -16.64974,-20.50219 -42.25156,-51.96847 -56.89258,-69.92383 -14.64102,-17.95535 -26.87377,-33.31058 -27.18554,-34.12305 -0.52052,-1.35645 20.52061,-20.46389 64.52734,-58.5957 23.03535,-19.9601 34.72433,-35.44017 50.4336,-66.78906 z m 348.60352,0 h 160.39843 l 2.49805,5.14063 2.49609,5.14063 35.32422,55.5332 10.17969,8.70703 c 25.16503,21.52245 70.79347,62.04157 71.16797,63.19922 0.2273,0.70289 -9.81888,13.84075 -22.32617,29.19531 -12.50731,15.35457 -28.17822,34.61991 -34.82422,42.8125 -6.6461,8.19258 -13.66592,16.74894 -15.59961,19.01367 0,0 -8.31396,10.3824 -24.48438,30.23828 -9.43461,11.5808 -17.47656,21.03 -17.87304,21 -0.39647,-0.0304 -7.68954,-7.53644 -16.20508,-16.68164 -8.51555,-9.1453 -16.00788,-16.6289 -16.65039,-16.6289 -0.64251,0 -4.458,3.26129 -8.47852,7.24609 -10.62667,10.77819 -21.93434,21.60966 -35.32421,28.58594 -27.05084,14.09378 -54.00421,25.42329 -80.45704,39.25582 -40.74465,21.3047 -48.26736,28.4115 -76.30273,72.0821 -9.89547,15.414 -11.19763,16.9321 -17.11133,19.9414 -3.5203,1.7914 -7.07136,3.2663 -7.89062,3.2773 -1.18414,0.016 -1.48828,-31.8659 -1.48828,-155.49022 0,-101.50508 -0.74067,-163.23895 -1.51758,-164.90039 11.34829,-0.0586 22.74783,0.47636 30.84765,1.67383 29.99339,6.37768 52.48828,12.10352 52.48828,12.10352 0,0 15.18612,-13.73493 29.49805,-41.67969 0.40566,-1.05713 -3.03485,-4.79849 -4.5664,-8.26172 -5.46952,-14.92457 -13.36886,-39.51884 -13.77735,-57.23047 z" />
    <g
       aria-label="T"
       style="font-style:normal;font-variant:normal;font-weight:normal;font-stretch:normal;font-size:192px;line-height:1.25;font-family:'Bitstream Charter';-inkscape-font-specification:'Bitstream Charter';letter-spacing:0px;word-spacing:0px;fill:#000000;fill-opacity:1;stroke:none"
       id="text4414"
       transform="translate(178.01295,-12.319235)">
      <path
         d="m 386.81011,630.91458 v 29.568 h 10.56 l 2.688,-17.856 2.688,-2.88 h 29.568 v 108.48 l -3.456,2.688 -12.864,0.96 v 7.872 h 50.112 v -7.872 l -12.864,-0.96 -3.456,-2.688 v -108.48 h 29.568 l 2.688,2.88 2.688,17.856 h 10.56 v -29.568 z"
         id="path960"
         inkscape:connector-curvature="0" />
    </g>
  </g>
</svg>
