<?xml version="1.0" encoding="UTF-8" standalone="no"?>
<!-- Created with Inkscape (http://www.inkscape.org/) -->

<svg
   xmlns:dc="http://purl.org/dc/elements/1.1/"
   xmlns:cc="http://creativecommons.org/ns#"
   xmlns:rdf="http://www.w3.org/1999/02/22-rdf-syntax-ns#"
   xmlns:svg="http://www.w3.org/2000/svg"
   xmlns="http://www.w3.org/2000/svg"
   xmlns:sodipodi="http://sodipodi.sourceforge.net/DTD/sodipodi-0.dtd"
   xmlns:inkscape="http://www.inkscape.org/namespaces/inkscape"
   version="1.1"
   id="svg96"
   width="239.02391"
   height="249.08495"
   viewBox="0 0 239.0239 249.08495"
   sodipodi:docname="Trybewarts-t-logo.svg"
   inkscape:version="0.92.3 (2405546, 2018-03-11)"
   inkscape:export-filename="/home/silvio/Pictures/Trybewarts.png"
   inkscape:export-xdpi="96"
   inkscape:export-ydpi="96">
  <metadata
     id="metadata102">
    <rdf:RDF>
      <cc:Work
         rdf:about="">
        <dc:format>image/svg+xml</dc:format>
        <dc:type
           rdf:resource="http://purl.org/dc/dcmitype/StillImage" />
        <dc:title />
      </cc:Work>
    </rdf:RDF>
  </metadata>
  <defs
     id="defs100" />
  <sodipodi:namedview
     pagecolor="#ffffff"
     bordercolor="#666666"
     borderopacity="1"
     objecttolerance="10"
     gridtolerance="10"
     guidetolerance="10"
     inkscape:pageopacity="0"
     inkscape:pageshadow="2"
     inkscape:window-width="1920"
     inkscape:window-height="999"
     id="namedview98"
     showgrid="false"
     inkscape:zoom="2.0053107"
     inkscape:cx="211.46616"
     inkscape:cy="119.69292"
     inkscape:window-x="0"
     inkscape:window-y="0"
     inkscape:window-maximized="1"
     inkscape:current-layer="svg96"
     inkscape:snap-nodes="true"
     showguides="false"
     inkscape:pagecheckerboard="true"
     fit-margin-left="15"
     fit-margin-top="15"
     fit-margin-right="15"
     fit-margin-bottom="15" />
  <path
     id="path108"
     style="fill:#ffffff;fill-opacity:1;stroke-width:1.19164777"
     d="m 201.99095,9.050082 c -0.12077,0.01 -0.23636,0.033 -0.34766,0.0684 -20.13756,7.57597 -30.31332,11.03765 -57.61914,16.69921 -16.68548,3.37843 -26.7356,4.49786 -38.82227,1.3711 L 46.84642,12.827372 c -4.35681,-1.32479 -8.55716,-2.3405 -12.62696,-3.09766 l -20.92578,23.94532 -4.34375,5.30859 4.48828,16.63672 c 4.95668,18.37325 10.21332,46.155118 11.4336,60.429688 1.11867,6.09192 0.70792,11.5775 0.50976,17.25586 -0.0264,12.33882 -6.53661,39.86805 -13.15234,55.61718 l -3.46485,8.24805 2.61524,4.26367 c 10.84857,17.69381 25.05865,38.22662 26.45703,38.22656 0.93008,0 10.44228,-2.12749 21.13672,-4.72656 10.69445,-2.59909 25.14349,-5.54707 32.10937,-6.55273 16.00804,-2.31096 43.53493,-2.29081 58.96875,-0.01 29.99339,6.37768 52.48828,12.10352 52.48828,12.10352 11.99763,-20.10104 34.80576,-28.48742 24.93165,-49.94141 -5.46952,-14.92457 -13.36886,-39.51884 -13.77735,-57.23047 l -0.041,-3.01172 c 0.39099,-3.66425 0.34366,-8.72572 0.47293,-13.06667 1.14041,-11.78294 4.58787,-34.578418 5.40235,-35.724608 9.66135,-27.86647 12.57772,-40.35711 -4.54688,-60.25 -8.17049,-9.48215 -11.1788,-12.34599 -12.99023,-12.20117 z m -165.98047,5.07226 c 1.31081,0.23284 13.29365,3.95394 24.3125,7.31836 25.079,7.65746 46.53314,12.06143 58.76367,12.0586 15.43729,-0.003 37.84334,-4.774 67.01953,-14.26954 8.10531,-2.63791 15.17241,-4.79492 15.70508,-4.79492 0.5327,0 5.92928,5.69763 11.99219,12.66211 l 11.02343,12.66211 -4.96484,19.81055 c -9.53529,38.0393 -12.54842,63.781978 -9.85156,84.158198 1.81577,13.71907 6.3333,31.62406 10.84765,42.98828 1.94659,4.90026 3.53907,9.32908 3.53907,9.8418 0,0.95142 -22.02682,35.80294 -23.66993,37.45117 -0.49723,0.49876 -7.03795,-0.68931 -14.53515,-2.63867 -28.41085,-7.38719 -40.0756,-8.95313 -66.66016,-8.95313 -26.64236,0 -38.85257,1.64372 -66.37304,8.93555 -7.34042,1.94491 -13.56637,3.53516 -13.83399,3.53516 -0.26762,0 -6.00084,-8.44493 -12.74023,-18.76758 l -12.25196,-18.76763 2.69922,-7.15039 c 16.38875,-43.41355 16.8686,-71.7486 2.21094,-130.619138 l -4.92969,-19.79688 10.60352,-12.65429 c 8.00744,-9.55552 11.09375,-13.00977 11.09375,-13.00977 z"
     inkscape:connector-curvature="0"
     sodipodi:nodetypes="ccccccccccccccccccccccccccccscsscccsssccscscccccccc" />
  <g
     id="g106"
     transform="translate(-499.51296,-560.54763)" />
  <text
     xml:space="preserve"
     style="font-style:normal;font-weight:normal;font-size:20px;line-height:1.25;font-family:sans-serif;letter-spacing:0px;word-spacing:0px;fill:#000000;fill-opacity:1;stroke:none"
     x="-425.97385"
     y="28.181376"
     id="text4410"><tspan
       sodipodi:role="line"
       id="tspan4408"
       x="-425.97385"
       y="46.196453" /></text>
  <text
     xml:space="preserve"
     style="font-style:normal;font-variant:normal;font-weight:normal;font-stretch:normal;font-size:192px;line-height:1.25;font-family:'Bitstream Charter';-inkscape-font-specification:'Bitstream Charter';letter-spacing:0px;word-spacing:0px;fill:#ffffff;fill-opacity:1;stroke:none;"
     x="61.929852"
     y="192.23015"
     id="text4414"><tspan
       sodipodi:role="line"
       id="tspan4412"
       x="61.929852"
       y="192.23015">T</tspan></text>
</svg>
