<?xml version="1.0" encoding="UTF-8" standalone="no"?>
<svg
   xmlns:dc="http://purl.org/dc/elements/1.1/"
   xmlns:cc="http://creativecommons.org/ns#"
   xmlns:rdf="http://www.w3.org/1999/02/22-rdf-syntax-ns#"
   xmlns:svg="http://www.w3.org/2000/svg"
   xmlns="http://www.w3.org/2000/svg"
   xmlns:sodipodi="http://sodipodi.sourceforge.net/DTD/sodipodi-0.dtd"
   xmlns:inkscape="http://www.inkscape.org/namespaces/inkscape"
   version="1.1"
   id="svg96"
   width="1234.6667"
   height="1345.3333"
   viewBox="0 0 1234.6667 1345.3333"
   sodipodi:docname="trybewarts-colored.svg"
   inkscape:version="1.0.2 (e86c870879, 2021-01-15, custom)"
   inkscape:export-filename="/home/silvio/Pictures/Trybewarts-colored.png"
   inkscape:export-xdpi="96"
   inkscape:export-ydpi="96">
  <metadata
     id="metadata102">
    <rdf:RDF>
      <cc:Work
         rdf:about="">
        <dc:format>image/svg+xml</dc:format>
        <dc:type
           rdf:resource="http://purl.org/dc/dcmitype/StillImage" />
        <dc:title />
      </cc:Work>
    </rdf:RDF>
  </metadata>
  <defs
     id="defs100" />
  <sodipodi:namedview
     pagecolor="#ffffff"
     bordercolor="#666666"
     borderopacity="1"
     objecttolerance="10"
     gridtolerance="10"
     guidetolerance="10"
     inkscape:pageopacity="0"
     inkscape:pageshadow="2"
     inkscape:window-width="1920"
     inkscape:window-height="986"
     id="namedview98"
     showgrid="false"
     inkscape:zoom="1"
     inkscape:cx="400.95305"
     inkscape:cy="780.24453"
     inkscape:window-x="-11"
     inkscape:window-y="-11"
     inkscape:window-maximized="1"
     inkscape:current-layer="svg96"
     inkscape:snap-nodes="true"
     showguides="false"
     inkscape:pagecheckerboard="true"
     inkscape:document-rotation="0" />
  <path
     style="opacity:0.98999999;fill:#2ca05a;fill-opacity:1;stroke-width:0.61596173"
     d="m 611.80035,1107.0381 c -4.67125,-1.9425 -8.92949,-3.9864 -11.29863,-6.6847 -1.10391,-1.2573 -6.72817,-9.8529 -12.49837,-18.5368 -16.44653,-24.7511 -27.25977,-39.3753 -34.69208,-45.0894 -14.88934,-11.4473 -34.74388,-22.2685 -65.93519,-35.5286 -8.63887,-3.67258 -28.82701,-13.92591 -31.87602,-15.44496 -18.57354,-9.25355 -33.15352,-17.91216 -52.04877,-35.1973 -10.02421,-9.17002 -11.67957,-12.11566 -13.10085,-11.57026 -0.53634,0.20582 -6.90114,6.79741 -15.27324,15.58903 -14.88633,15.63226 -15.71091,17.80849 -16.90503,16.73654 -2.7986,-2.51228 -51.06465,-59.18335 -97.1842,-116.28261 -20.59649,-25.49991 -20.49716,-25.00222 -19.42888,-26.63262 1.7377,-2.65207 18.14378,-16.57646 50.08076,-44.48384 12.11926,-10.59013 24.26596,-22.7478 27.74553,-26.2642 14.53202,-14.68582 24.67446,-27.71463 37.31564,-54.42382 l 6.71863,-14.19558 81.38871,0.76996 81.38873,-0.15399 -0.58932,6.92957 c -1.25486,15.53636 -7.22836,40.52907 -13.64222,55.31695 -1.32817,3.06225 -1.79888,5.52072 -1.79888,5.83969 0,1.38836 16.28577,26.29649 23.13841,35.43931 4.50437,6.00974 2.70069,6.50897 4.86503,6.12185 1.19827,-0.21433 9.16984,-2.64675 16.96176,-4.46432 27.48768,-6.4119 37.90436,-9.60717 53.35373,-8.27474 l 10.19738,-1.14929 -0.1793,6.85929 c -0.0833,3.1862 0.25412,73.37736 0.0787,154.8537 -0.29743,138.17324 -0.50044,161.57714 -1.47634,161.50994 1.48598,1.0639 -3.44244,-0.814 -5.30573,-1.5888 z"
     id="path958"
     inkscape:connector-curvature="0"
     sodipodi:nodetypes="ccccssscssscsssccccsssccscsscc" />
  <path
     style="opacity:0.98999999;fill:#ffdd55;fill-opacity:1;stroke-width:0.61596173"
     d="m 621.47669,1108.7837 c -0.2675,-0.4235 -1.7918,-65.5316 -2.05648,-141.75687 -0.26468,-76.22527 -1.34661,-147.81269 -0.93589,-159.0727 l 0.19866,-22.55016 7.13248,2.17833 c 15.92439,10e-4 26.65214,-0.78988 63.75195,10.04518 l 12.58263,3.67478 2.17787,-2.08599 c 3.20292,-3.0678 11.35815,-13.3183 15.50783,-19.49215 5.07634,-7.55252 10.38916,-19.08926 10.38916,-20.40514 0,-0.6069 -1.82426,-3.96994 -2.98922,-5.74331 -2.31943,-3.53077 -4.56154,-12.23173 -8.29736,-25.40535 -3.6111,-12.73382 -7.43527,-23.26254 -6.2956,-30.90832 l 0.54283,-6.68406 80.26133,0.29893 80.1371,-0.29893 4.27527,5.80153 c 1.48989,2.96653 10.45338,17.09664 19.5256,32.52858 l 18.77671,27.57044 37.0741,32.93144 c 16.40847,14.57498 8.87001,7.14114 25.16991,21.77476 7.74955,6.95735 14.01528,13.0947 15.38776,14.30399 1.51041,1.33082 1.92474,4.3976 1.71752,4.9309 -0.9337,2.403 -24.11657,30.47313 -62.39341,77.20431 -6.79849,8.30008 -16.16585,20.98115 -21.21561,27.24857 -14.24449,17.67924 -30.32782,36.12397 -31.45113,36.12397 -1.70356,0 -8.87672,-7.84414 -17.22283,-16.6329 -8.34611,-8.78876 -14.74477,-15.71858 -15.417,-15.93194 -1.58338,-0.50254 -1.30761,0.43381 -13.93261,12.38324 -10.9942,10.40591 -17.8887,15.52739 -24.74972,19.79495 -5.46637,3.40009 -18.00217,9.96125 -48.88073,24.63678 -51.78664,24.61254 -69.57816,34.47434 -82.94847,48.45994 -7.41636,7.7576 -12.9963,16.5356 -26.72756,37.3218 -7.01597,10.6207 -12.18978,18.8312 -13.97517,20.4769 -1.59564,1.4708 -4.6084,4.2672 -7.09426,5.4158 -5.15911,2.3836 -7.37871,2.8868 -8.02566,1.8627 z"
     id="path952"
     inkscape:connector-curvature="0"
     sodipodi:nodetypes="cssccscssssssccccscssscscsscssccsccc" />
  <path
     style="opacity:0.98999999;fill:#5f8dd3;fill-opacity:1;stroke-width:0.5"
     d="m 712.83096,683.19224 c 0.15254,-1.16875 0.0933,-5.09822 0.51663,-8.94822 1.4036,-12.76622 3.55115,-27.41294 5.79195,-36.78033 3.72546,-15.57381 9.9173,-37.35927 9.9173,-38.20637 0,-0.80531 -16.13934,-18.28893 -22.34059,-24.8626 -5.09322,-5.39907 -2.98074,-4.82832 -13.75562,-0.91012 -17.49999,6.36373 -33.56317,10.41219 -54.63862,14.36558 -6.03407,1.13188 -18.68304,2.10414 -19.02488,1.7564 -0.0918,-0.0933 0.69387,-3.21345 0.92463,-6.51345 0.23077,-3.3 -0.12064,-54.56093 0.38095,-75.78813 l 1.42657,-69.95911 10.85265,-14.54089 11.54188,-14.65442 21.57865,-0.1512 20.6733,0.1512 6.50608,-4.77385 c 30.9725,-22.72614 65.14273,-45.2803 81.625,-53.8952 17.04744,-8.9103 51.98481,-23.16284 73.26836,-22.54284 l 5.70587,-0.81528 19.45038,22.04503 c 57.63667,65.32532 76.52773,84.31897 76.1168,86.37611 -0.3482,1.80172 -9.99921,4.69899 -13.8287,6.10505 -24.1285,12.84496 -45.18419,20.57604 -60.6232,38.98392 -16.63796,19.83737 -27.30808,40.60827 -29.99631,71.64711 -2.14109,24.72134 4.2802,67.71339 15.63838,102.73554 2.78028,8.57279 8.65173,14.69249 10.20775,28.72027 l 0.79678,3.08211 c 0,0 -166.80005,-0.002 -158.68164,-0.002 z"
     id="path911"
     inkscape:connector-curvature="0"
     sodipodi:nodetypes="cssscscccscccccssscsccasssccc" />
  <g
     id="g106" />
  <path
     style="opacity:0.98999999;fill:#e95420;fill-opacity:1;stroke-width:1.41421354"
     d="m 366.54297,685.82033 c 0,-0.1998 2.19953,-7.21187 4.95701,-14.20688 6.50374,-16.49834 14.33163,-41.72111 18.22694,-61.01654 2.32216,-11.50281 3.38528,-22.2412 3.87441,-42.91843 0.78168,-33.04467 -0.76593,-40.08347 -11.27385,-61.67198 -6.18611,-12.70936 -8.81459,-16.30586 -20.81898,-28.48634 -7.55644,-7.66729 -17.9175,-16.11426 -23.4829,-19.68771 -11.42578,-7.3363 -33.08274,-18.45203 -41.15783,-20.87139 -3.56504,-1.06811 -7.86872,-2.34651 -7.37883,-3.62313 0.40556,-1.0569 23.08356,-27.46215 48.97355,-55.45646 l 46.14103,-50.99861 6.48469,0.61713 c 12.35703,1.17598 33.84,7.05313 47.38031,11.71609 24.33795,8.38142 49.44929,22.68097 92.77127,54.27743 l 20.09615,14.65693 20.33394,0.009 22.09379,-0.009 12.16485,15.91892 10.73164,14.72171 2.0179,63.70663 c 0.0127,34.61287 0.0719,67.32375 0.57986,73.85053 l -0.2696,13.28108 -6.72156,0.29532 c -48.50638,-9.87396 -53.61948,-12.48054 -76.41302,-18.94018 0,0 -15.1879,17.89555 -27.39085,28.5468 l 6.81585,18.50326 c 4.70012,12.7596 10.64086,45.3293 10.25661,60.20264 l -0.36152,7.59488 -158.63084,-0.0117 z"
     id="path867"
     inkscape:connector-curvature="0"
     sodipodi:nodetypes="cssssssscscssscccccccccccscccc" />
  <g
     aria-label="DISCERE"
     transform="matrix(-0.68123098,-0.68617451,0.75794463,-0.61672491,404.85749,1431.3497)"
     style="font-style:normal;font-variant:normal;font-weight:normal;font-stretch:normal;font-size:66.37227631px;line-height:1.25;font-family:'Bitstream Charter';-inkscape-font-specification:'Bitstream Charter';letter-spacing:0px;word-spacing:0px;fill:#000000;fill-opacity:1;stroke:none;stroke-width:3.31861401"
     id="text4263">
    <path
       style="opacity:0.98999999;fill:#f4eed7;fill-opacity:1;stroke-width:2.04413939"
       d="m 350.73694,1119.5923 c 0,-5.9231 -9.04613,-13.8337 -48.29962,-42.2367 C 223.92164,1020.5433 184.84693,988.76097 150.85735,954.06433 122.8018,925.42516 105.66922,900.65913 94.515081,872.61868 85.935393,851.05015 82.18079,833.55598 79.09892,800.78875 c -0.995672,-10.58623 -4.427054,-40.461 -6.508879,-56.66848 l -0.356037,-2.77183 1.950115,3.03885 c 6.906816,10.76285 14.784469,25.52833 18.753579,35.15078 3.92804,9.52288 16.792122,32.20757 18.593652,32.7883 0.9031,0.29111 10.34235,-10.38519 14.55748,-16.46531 1.76147,-2.54084 6.95463,-11.96506 11.54036,-20.9427 4.58571,-8.97764 8.60648,-16.27805 8.93503,-16.22313 0.32855,0.0549 0.77867,1.16365 1.00027,2.46385 0.65342,3.83376 2.28385,23.18768 3.61997,42.9706 2.10447,31.15928 4.16283,41.39878 11.14005,55.41698 5.52316,11.0968 18.04969,25.12758 35.03795,39.24549 41.54284,34.52372 115.04264,90.81712 157.37823,120.53575 17.45876,12.2557 24.81402,18.0239 33.15052,25.9977 11.17318,10.687 14.60835,16.6189 15.88305,27.4273 0.85253,7.2287 0.45451,10.0433 -2.18511,15.4518 -4.50328,9.2271 -13.7415,17.3151 -26.10718,22.8566 -1.92189,0.8612 -8.27575,3.5804 -14.11969,6.0425 l -10.62534,4.4765 z"
       id="path1036"
       inkscape:connector-curvature="0"
       transform="matrix(-0.65594072,0.72980643,-0.80614021,-0.72454855,1419.4311,741.61475)" />
    <g
       id="g1034"
       transform="translate(-44.88534,101.87555)">
      <path
         inkscape:connector-curvature="0"
         id="path621"
         style="stroke-width:3.31861401"
         d="m 607.02731,118.60325 16.3924,-0.2253 -0.0365,-2.65464 -3.78834,-0.3462 -1.14099,-0.91362 -0.50259,-36.567669 1.11545,-0.94463 3.7783,-0.383823 -0.0374,-2.721006 -16.3924,0.2253 c -6.6366,0.09121 -11.67038,0.890564 -16.13675,4.337256 -5.38546,4.189489 -8.15437,10.40075 -8.04583,18.298305 0.19155,13.936857 9.06589,22.112207 24.79463,21.896027 z m 5.46642,-3.12854 -5.24292,0.0721 c -12.14497,0.16692 -18.13729,-5.9903 -18.31516,-18.931674 -0.17696,-12.875005 5.64205,-19.327323 17.78703,-19.494246 l 5.24292,-0.07206 z" />
      <path
         inkscape:connector-curvature="0"
         id="path623"
         style="stroke-width:3.31861401"
         d="m 576.66414,74.695881 -16.77726,0.707764 0.1147,2.718845 4.25803,0.152528 1.16649,0.880828 1.54142,36.538624 -1.08816,0.97595 -4.22727,0.57691 0.1119,2.65254 16.77727,-0.70777 -0.1119,-2.65253 -4.26084,-0.21884 -1.16649,-0.88083 -1.54142,-36.538625 1.08817,-0.975943 4.23006,-0.510606 z" />
      <path
         inkscape:connector-curvature="0"
         id="path625"
         style="stroke-width:3.31861401"
         d="m 553.59909,76.987698 c -3.1401,-1.10611 -7.30154,-1.606787 -12.06815,-1.265648 -10.59247,0.758086 -16.75331,6.721997 -16.19422,14.533944 0.20847,2.91293 1.37683,5.291368 3.43411,7.073851 3.25855,2.761185 6.90932,3.564575 10.38517,4.713195 6.27545,2.14602 9.57165,3.57367 9.88909,8.00926 0.34588,4.83282 -2.80304,8.2522 -8.43029,8.65493 -2.31711,0.16583 -4.33636,-0.15545 -6.05777,-0.96384 l -1.07359,-1.05438 -1.44316,-6.2182 -3.44255,0.24637 0.7344,10.26146 c 3.99599,0.97831 7.746,1.30881 11.38716,1.04822 9.40082,-0.67281 14.91858,-6.32452 14.38318,-13.80546 -0.45959,-6.42168 -4.47467,-8.596385 -12.05062,-11.248204 -7.43881,-2.595092 -11.36387,-3.511939 -11.75712,-9.006784 -0.33167,-4.634206 3.00639,-8.200207 9.42808,-8.659797 2.97913,-0.213212 5.53275,0.136366 7.5237,0.992007 l 0.94119,1.063856 1.33931,7.556482 3.90597,-0.279544 z" />
      <path
         inkscape:connector-curvature="0"
         id="path627"
         style="stroke-width:3.31861401"
         d="m 482.01945,83.943134 1.20385,10.417491 3.69227,-0.42668 0.6048,-7.486242 0.93302,-1.176845 c 1.90944,-0.82198 3.79103,-1.306674 5.63717,-1.520014 10.68122,-1.234326 18.062,5.395915 19.50967,17.923276 1.36385,11.8021 -4.20881,19.66199 -14.03291,20.79726 -2.5714,0.29715 -5.01358,-0.0219 -7.58265,-0.86091 l -0.99428,-1.08775 -1.68236,-5.88566 -3.69227,0.42668 1.17337,10.15376 c 4.98839,0.96026 9.42381,1.18266 13.31388,0.73312 13.71417,-1.58482 21.81984,-11.80865 20.23503,-25.52282 -0.99813,-8.637286 -6.23358,-15.782698 -13.75324,-18.989377 -3.23104,-1.363783 -7.16185,-1.844933 -11.51346,-1.342059 -4.41755,0.510493 -8.87552,1.827426 -13.05189,3.84677 z" />
      <path
         inkscape:connector-curvature="0"
         id="path629"
         style="stroke-width:3.31861401"
         d="m 476.72848,83.16874 -33.74405,5.452456 1.72573,10.680155 3.40716,-0.550539 0.0446,-6.797749 0.74791,-1.196581 17.56001,-2.837395 2.96445,18.346283 -10.74568,1.73631 -1.07612,-0.83461 -1.41751,-4.61174 -3.07956,0.4976 2.32921,14.41493 3.07955,-0.4976 -0.11765,-4.88901 0.76909,-1.06554 10.74568,-1.73631 2.67859,16.57717 -15.13568,2.44567 -1.07613,-0.83462 -1.81723,-5.42118 -3.66926,0.59289 1.54575,9.56627 31.38524,-5.07131 -0.42349,-2.6209 -3.7983,0.21034 -1.26211,-0.73733 -5.8336,-36.102855 0.96566,-1.097298 3.68185,-0.931088 z" />
      <path
         inkscape:connector-curvature="0"
         id="path631"
         style="stroke-width:3.31861401"
         d="m 447.95468,132.93947 -0.53505,-2.60042 -3.78585,0.37238 -1.29244,-0.68275 -7.37028,-35.820749 0.91791,-1.137541 3.63871,-1.087495 -0.54842,-2.665428 -15.47248,3.183532 0.54842,2.665428 3.77247,-0.43739 1.29245,0.68275 3.18353,15.472483 c -1.15681,0.30578 -2.24861,0.59819 -3.22377,0.79883 -5.91595,1.21723 -8.79914,0.0486 -11.65127,-4.92106 -2.22129,-3.87977 -3.35078,-8.051946 -7.03308,-10.140328 -1.76277,-0.992556 -4.0285,-1.136236 -6.95397,-0.534308 -1.49524,0.307653 -3.08037,0.837089 -4.95043,1.628437 l 0.5083,2.470399 c 0.19503,-0.0401 0.39006,-0.0803 0.58509,-0.12039 4.9408,-1.016588 7.18164,-0.664501 9.40107,2.87684 1.79887,2.81472 2.59957,6.37692 5.03516,8.99286 1.74163,1.87782 4.23288,2.78825 7.59228,2.97795 -6.70009,3.00488 -9.46159,7.36778 -8.31124,12.95868 1.64527,7.99628 7.54354,10.64516 18.07523,8.47822 z m -11.27702,-0.79679 -3.1205,0.64206 c -8.06129,1.65865 -12.47021,-0.009 -13.86134,-6.77026 -1.32424,-6.43604 1.85969,-9.73389 9.66094,-11.33903 0.39006,-0.0803 1.56025,-0.32103 3.58895,-0.67068 z" />
      <path
         inkscape:connector-curvature="0"
         id="path633"
         style="stroke-width:3.31861401"
         d="m 396.97491,98.104625 -33.12822,8.420895 2.66526,10.48525 3.34498,-0.85027 -0.55792,-6.77496 0.63895,-1.25815 17.23954,-4.38213 4.57835,18.01145 -10.54957,2.68161 -1.14584,-0.73598 -1.82055,-4.46801 -3.02336,0.76851 3.59728,14.15186 3.02335,-0.76851 -0.55037,-4.85935 0.67165,-1.1295 10.54957,-2.6816 4.13687,16.27464 -14.85945,3.77714 -1.14584,-0.73599 -2.29043,-5.23884 -3.6023,0.91567 2.38729,9.39169 30.81245,-7.83226 -0.65405,-2.57306 -3.76472,0.54606 -1.32247,-0.6226 -9.00955,-35.44397 0.86464,-1.17855 3.58486,-1.25365 z" />
    </g>
    <path
       style="opacity:0.98999999;fill:#e9ddaf;fill-opacity:1;stroke-width:0.1806781"
       d="m 342.18963,1120.6207 c -4.67056,-0.3608 -11.26765,-1.6818 -19.95367,-3.9954 -12.78481,-3.4054 -20.13243,-5.2338 -30.69098,-7.6372 l -2.46185,-0.5604 2.81573,-1.6831 c 8.60669,-5.1444 11.79453,-6.9676 25.01129,-14.3048 l 0.20023,-0.1112 0.3442,0.2715 c 0.18932,0.1493 2.36544,1.8108 4.83583,3.6921 5.38073,4.0977 6.38366,4.8731 8.54768,6.6087 3.22391,2.5857 6.09556,5.0331 8.87435,7.5634 1.46647,1.3353 4.6828,4.5422 5.49753,5.4814 1.34451,1.5498 2.12858,2.7706 2.12341,3.3061 -0.002,0.1854 -0.18242,0.5402 -0.35944,0.706 -0.22765,0.2132 -0.71329,0.4183 -1.28731,0.5438 -0.41433,0.091 -0.7416,0.1124 -1.86368,0.125 -0.74861,0.01 -1.4836,0.01 -1.63332,-0.01 z"
       id="path1038"
       inkscape:connector-curvature="0"
       transform="matrix(-0.65594072,0.72980643,-0.80614021,-0.72454855,1419.4311,741.61475)" />
    <path
       style="opacity:0.98999999;fill:#e9ddaf;fill-opacity:1;stroke-width:0.1806781"
       d="m 893.04956,1120.615 c -1.17562,-0.1491 -1.87434,-0.4749 -2.13336,-0.9947 -0.19392,-0.3891 -0.1825,-0.6486 0.0488,-1.1088 1.46786,-2.9211 12.47817,-13.1825 20.96308,-19.5373 1.22011,-0.9138 2.05688,-1.5085 6.92746,-4.9229 l 2.35417,-1.6504 0.31358,0.1758 c 2.10652,1.1806 27.45214,15.6438 27.43852,15.6574 -0.0102,0.01 -1.59706,0.3989 -3.52632,0.8638 -4.6173,1.1127 -11.93348,2.9726 -23.05419,5.8609 -8.78929,2.2828 -12.76823,3.252 -17.06814,4.1575 -3.18624,0.6709 -6.29291,1.1928 -8.4388,1.4176 -0.96645,0.1013 -3.27923,0.1503 -3.82479,0.081 z"
       id="path1040"
       inkscape:connector-curvature="0"
       transform="matrix(-0.65594072,0.72980643,-0.80614021,-0.72454855,1419.4311,741.61475)" />
  </g>
  <text
     xml:space="preserve"
     style="font-style:normal;font-weight:normal;font-size:20px;line-height:1.25;font-family:sans-serif;letter-spacing:0px;word-spacing:0px;fill:#000000;fill-opacity:1;stroke:none"
     x="73.539108"
     y="588.729"
     id="text4410" />
  <path
     id="path808"
     style="fill:#552200;stroke-width:0.518351"
     d="M 475.76562,724.85547 375.05469,783 v 116.28906 l 98.5315,61.34569 c 0,0 27.34711,-19.21603 26.62693,-18.18745 -4.17725,-6.0309 -11.82724,-27.05397 -12.3225,-31.83402 -0.53926,-6.77463 -0.51873,-8.6185 0.11133,-10.18359 0.42312,-1.05098 2.9806,-4.61936 5.6836,-7.93164 9.23142,-11.31227 13.16917,-25.07756 15.15234,-38.37891 1.16492,-7.81332 1.11266,-12.61695 -0.24219,-22.28516 -1.02013,-7.27967 -1.589,-9.80393 -3.19531,-14.12304 -1.0757,-2.89236 -2.22133,-5.69859 -2.54492,-6.23633 -0.32357,-0.53774 -1.12961,-2.20851 -1.78906,-3.71289 -1.89904,-4.33222 -7.59933,-13.30688 -11.36133,-17.88672 -3.7463,-4.56075 -9.38514,-10.14198 -13.16016,-13.02734 -2.91786,-2.2302 -5.33299,-4.95247 -7.79883,-8.78907 -1.02986,-1.60235 -1.97743,-2.9029 -2.10547,-2.88867 -0.12803,0.0142 -0.60701,1.01717 -1.06445,2.22852 -0.45743,1.21137 -3.34853,5.34694 -6.42383,9.18945 -12.1474,15.17785 -18.31631,33.21022 -18.56836,54.26563 -0.18922,15.80683 2.98603,27.4362 10.98438,40.21289 6.1391,9.80668 14.36656,20.17651 25.98242,28.5039 2.80182,2.00863 3.77661,4.34184 5.28125,12.64844 0.4003,4.71803 1.73708,21.3 1.02735,22.38281 l -11.09571,6.89453 -84.10937,-52.09375 1.23242,-98.55468 85.9668,-48.20899 84.73242,50.3418 -1.23242,98.55469 -42.11914,23.9414 7.35006,13.5288 51.89017,-29.7163 V 783 Z"
     sodipodi:nodetypes="ccccccssssssssssssssssccccccccccccc" />
  <g
     id="g1876"
     style="fill:#333333">
    <path
       sodipodi:nodetypes="csccsccccsccccsccccccscccccsscccccsscsscsscsssccccccccsscccsscsccsccsscsccccc"
       inkscape:connector-curvature="0"
       id="path736"
       d="m 493.33285,622.01356 c -5.1515,-0.5812 -11.6317,-3.7474 -18.95647,-9.26207 -10.12448,-7.62252 -18.63089,-17.38571 -19.26638,-22.11292 -0.18746,-1.39571 0.66456,-4.27833 1.59859,-5.40745 0.37225,-0.45002 1.7611,-1.50687 3.08633,-2.34856 4.34196,-2.75769 4.87639,-3.59451 5.10114,-7.98751 0.16974,-3.3178 0.50856,-4.63291 1.5407,-5.98036 1.03066,-1.34552 2.05828,-2.05634 3.97874,-2.75217 2.05298,-0.74385 3.60552,-0.5285 6.45677,0.89567 3.26473,1.63068 4.2763,1.92039 5.9185,1.69508 0.80987,-0.11112 2.26688,-0.65931 3.23781,-1.21821 3.23593,-1.86269 4.71915,-2.2969 6.7979,-1.99004 2.38175,0.35158 3.79505,1.27209 5.29762,3.45045 1.4472,2.09808 3.6696,7.4118 5.11046,12.21902 1.34103,4.47417 3.25109,16.25231 3.34248,20.61107 0.138,6.58167 -1.07821,12.51766 -3.25379,15.88064 -1.94406,3.00514 -6.00679,4.75678 -9.9904,4.30736 z M 520.66584,588.88 c 0,0 -1.50195,-2.49225 -1.50443,-8.53749 -0.004,-9.01454 1.37415,-15.95133 3.54551,-17.84824 2.33558,-2.04041 4.98321,-2.4356 8.92348,-1.33194 1.21417,0.34009 2.38162,0.3991 3.86616,0.19542 2.04843,-0.28105 2.21877,-0.37306 4.62631,-2.49978 3.69031,-3.25982 5.57617,-3.83636 8.90562,-2.7226 2.94505,0.98517 3.79025,1.99045 5.28491,6.28583 0.0871,4.82687 5.68676,4.78871 9.91846,6.15921 2.33288,3.78181 -1.85063,8.43197 -0.68831,10.79557 0.61966,1.26009 -13.1183,-6.73482 -16.2618,-4.73891 -3.39744,2.15715 -0.28226,-0.25091 -7.54573,-0.39813 l -6.2407,-0.12649 z m -72.3754,-6.39477 c -1.82297,-4.69262 -3.97418,-13.13826 -4.72151,-18.53669 -1.08291,-7.81923 0.0119,-17.13402 3.33121,-28.35432 1.4943,-5.05116 2.89935,-8.86138 7.90604,-21.43961 5.13999,-12.91314 6.79636,-17.78604 7.71501,-22.69696 1.29339,-6.91418 1.32314,-9.44627 0.23228,-19.76877 -1.37274,-12.9898 -1.37583,-17.20991 -0.0167,-22.81859 1.79214,-7.3955 6.27824,-13.80573 12.3179,-17.60118 5.64462,-3.54719 13.05322,-5.64797 20.11001,-5.70238 12.83539,-0.099 22.84214,5.82464 28.21465,16.70196 2.12592,4.3042 3.08628,7.97589 4.87452,18.63665 1.67637,9.99373 2.3214,12.50896 4.55249,17.75194 2.54607,5.98316 5.1519,9.98681 13.9328,21.40652 13.72537,17.85009 18.73672,25.79884 22.50829,35.70155 2.59528,6.81419 4.00242,18.86529 3.29564,28.22468 -0.13089,1.73335 -0.27537,3.20366 -0.32106,3.26736 -0.0457,0.0637 -1.37776,-0.86924 -2.96015,-2.0732 -2.14796,-1.63429 -3.49409,-2.38164 -5.31181,-2.94901 l -2.43474,-0.75999 -0.63477,-1.9207 c -0.90337,-2.73341 -3.28461,-6.08998 -5.61902,-7.92054 l -1.97446,-1.54829 -0.4294,-3.1297 c -1.18559,-8.64118 -6.10992,-17.25951 -18.56418,-32.49018 -9.78793,-11.96994 -10.88941,-13.61817 -13.69953,-20.49978 -1.04808,-2.56663 -1.72196,-4.87662 -2.38877,-8.18851 -0.87776,-4.35965 -1.00912,-4.73185 -2.38898,-6.76898 -1.67897,-2.47866 -6.05196,-6.20967 -7.1083,-6.06473 -0.83534,0.11461 -2.35945,2.21498 -3.57171,4.92215 -3.61922,8.08234 -6.51648,9.71946 -11.2334,6.34758 -0.77134,-0.55141 -2.7056,-2.41899 -4.29835,-4.1502 -3.0677,-3.3344 -4.16343,-4.10955 -5.14775,-3.64172 -1.10323,0.52436 -4.14263,5.19927 -4.94121,7.60013 -0.70417,2.11693 -0.74285,2.67687 -0.44319,6.41341 0.51446,6.41466 -0.30246,13.76291 -2.12232,19.09046 -0.47536,1.3916 -1.82291,4.73002 -2.99455,7.41871 -5.63701,12.93585 -7.48754,17.49471 -9.03199,22.25071 -2.73098,8.40975 -3.63604,15.13413 -2.82884,21.01741 l 0.35296,2.57255 -1.48698,2.05916 c -1.68295,2.33052 -2.8058,5.28739 -3.02902,7.97649 -0.0834,1.00457 -0.18272,2.06848 -0.22076,2.36425 -0.038,0.29578 -1.07049,1.21604 -2.29434,2.04503 -2.16782,1.4684 -4.67596,4.24451 -5.76589,6.38192 l -0.52359,1.02681 z"
       style="fill:#333333;stroke-width:0.32525748" />
    <path
       inkscape:connector-curvature="0"
       id="path749"
       d="m 489.42629,450.48847 c -0.40755,0.0294 -1.80689,0.13869 -3.10964,0.24302 -6.84373,0.54812 -14.19556,0.4219 -19.05241,-0.32709 -2.03067,-0.31316 -5.33278,-1.20561 -6.53999,-1.76754 -1.84717,-0.85983 -2.77313,-1.82517 -2.94378,-3.06901 -0.24768,-1.80519 1.12892,-3.44577 4.62209,-5.50847 2.14371,-1.26584 3.61,-1.95195 6.45148,-3.01881 1.16433,-0.43717 2.13128,-0.81394 2.14877,-0.83727 0.0175,-0.0233 1.65592,-6.48194 3.64095,-14.35248 1.99399,-7.90613 3.85181,-14.95125 4.15142,-15.74285 0.82188,-2.1715 1.94564,-4.01846 3.58049,-5.88469 1.39632,-1.59398 12.85435,-12.26338 13.6513,-12.71173 0.27513,-0.15479 0.46139,-0.17931 0.80711,-0.10569 0.89892,0.19002 0.88719,0.0824 0.83515,7.66306 l -0.0478,6.96121 0.39935,1.69639 c 0.21966,0.933 0.57211,2.13967 0.78324,2.68146 0.35442,0.90951 13.68286,23.80985 13.96771,23.99869 0.0697,0.0461 1.14354,0.17215 2.38635,0.27989 3.03072,0.26272 4.62624,0.52821 7.03297,1.17025 3.91964,1.04563 5.68724,2.25484 5.93492,4.06001 0.17066,1.24384 -0.46107,2.42291 -2.00841,3.74847 -1.01125,0.86632 -3.95096,2.61515 -5.82225,3.46367 -4.32756,1.96227 -10.84308,3.92588 -17.96536,5.41429 -1.89251,0.3955 -11.50699,1.8453 -12.9036,1.94578 z"
       style="fill:#333333;stroke-width:0.13804165" />
  </g>
  <g
     id="g762"
     transform="matrix(0.1328374,0,0,0.1328374,579.49401,454.86999)">
    <path
       style="fill:#55ddff;stroke-width:1.85710001"
       d="m 862.48821,886.74983 c -58.30615,-38.43541 -60.86639,-42.92543 -81.54845,-130.9632 -0.79004,-28.6514 1.34356,-47.38027 9.64598,-84.67492 11.35389,-51.00164 28.61369,-98.72846 54.95412,-151.95933 5.55332,-11.22255 7.17356,-15.97554 5.94734,-17.44608 -0.92694,-1.11165 -8.23246,-5.82895 -16.23444,-10.48291 -27.57494,-16.03757 -73.8838,-47.73495 -97.28691,-66.59078 C 627.07285,335.28659 589.87679,247.8178 634.4919,181.30737 673.94589,122.49085 771.11772,82.121009 911.29626,66.309578 c 19.04735,-2.148423 37.42114,-3.83318 40.83084,-3.743902 10.8031,0.282897 11.308,-0.971491 12.4538,-30.940586 3.9284,-102.756168 26.6732,-189.50502 63.8637,-243.57716 29.8939,-43.46355 65.7459,-64.44518 112.1007,-65.60442 16.6392,-0.41607 53.9591,8.13402 71.8543,16.4614 63.4583,29.53188 128.7077,87.98685 191.78,171.809887 8.2236,10.929357 15.8399,20.07502 16.9247,20.323644 1.0848,0.248598 8.8444,-3.112355 17.2434,-7.468796 90.6059,-46.996125 177.1689,-72.655075 251.3636,-74.509215 23.6551,-0.59116 68.4051,9.5852 85.698,19.48813 50.281,28.794 71.2927,85.646476 61.983,167.712264 -2.1188,18.679246 -5.1505,32.660801 -14.2687,65.806776 -12.0382,43.76072 -20.8839,67.81945 -39.2935,106.87058 -5.978,12.68068 -12.0913,26.1506 -13.5852,29.93313 l -2.716,6.87733 18.9913,11.19126 c 106.377,62.68638 182.9007,136.30304 207.454,199.57318 25.7169,66.26818 3.9022,119.39383 -66.5361,162.03787 -54.1315,32.7722 -133.765,54.75276 -231.9658,64.02825 l -35.1654,3.32147 -1.6346,7.04324 c -0.8994,3.8737 -2.1949,18.62813 -2.8793,32.78745 -2.1806,45.10984 -5.0783,65.80445 -15.7646,112.58991 -8.0667,35.31714 -12.0798,49.49201 -18.5718,65.59738 -27.2846,67.68792 -65.7983,107.64315 -113.5669,117.81775 -9.4776,2.0186 -23.3663,3.4899 -30.8638,3.2695 -77.2156,-2.2707 -172.0855,-71.2218 -260.9329,-189.6454 l -15.1323,-20.16936 -5.2584,2.34701 c -2.8922,1.29088 -17.6485,8.36122 -32.792,15.71188 -98.6236,47.87216 -191.07537,65.40313 -246.04929,39.43717 -20.02192,-1.64697 -38.14116,20.23761 -54.37271,14.06271 z m 56.66381,-50.13097 c 33.32168,2.46447 83.09478,-6.49197 133.38338,-24.00182 42.6214,-14.84021 109.7556,-45.50324 110.9274,-50.66512 0.2575,-1.13349 -5.1725,-11.72011 -12.0663,-23.52576 -17.0464,-29.19237 -42.4599,-77.94026 -56.508,-108.39341 -6.384,-13.83902 -12.8855,-26.19944 -14.4475,-27.46747 -1.5619,-1.26803 -11.775,-5.39223 -22.6958,-9.16482 -35.4356,-12.24128 -87.0013,-33.45252 -134.67515,-55.39767 -6.61102,-3.04319 -10.88076,-4.19761 -12.35685,-3.34094 -6.02178,3.49489 -33.58052,67.34087 -46.74904,108.30454 -18.6084,57.8855 -23.97491,117.53498 -13.32722,148.13285 10.20147,29.31558 30.34201,42.69641 68.51508,45.51962 z m 572.17038,125.94619 c 27.7649,-6.54356 52.4186,-36.35534 71.1461,-86.03152 8.9166,-23.65287 22.3081,-83.15898 25.3106,-112.47099 3.1624,-30.8733 4.833,-71.1668 3.0661,-73.94703 -1.1979,-1.88492 -8.7437,-2.60823 -30.5226,-2.92581 -33.2881,-0.48539 -88.3753,-3.97183 -123.0049,-7.78494 -13.124,-1.44511 -25.7859,-2.66368 -28.1377,-2.70797 -2.6602,-0.0502 -14.6115,7.911 -31.6268,21.06787 -33.3711,25.80302 -63.2928,47.0764 -94.8334,67.42281 -13.1079,8.45587 -24.1361,16.58189 -24.5069,18.05783 -0.8157,3.24622 26.1082,38.90778 49.6503,65.76372 43.1807,49.2588 86.1865,84.42582 125.7494,102.82853 17.2431,8.02066 46.2871,13.41959 57.7098,10.7275 z M 1288.7821,685.67904 c 14.3646,-10.31287 26.355,-19.69658 26.6451,-20.85274 0.4003,-1.59564 -17.3488,-6.19881 -73.6707,-19.10615 -42.7951,-9.80738 -74.3664,-16.33357 -74.5957,-15.41991 -0.7861,3.13159 27.6997,56.73559 47.9252,90.18487 l 5.8727,9.71252 20.853,-12.88391 c 11.469,-7.08623 32.6057,-21.32181 46.9704,-31.63468 z m 54.8821,-80.8002 c 18.3932,3.16416 35.4124,5.79481 37.8208,5.84594 7.3737,0.15647 67.5336,-54.63562 118.9888,-108.3717 30.3617,-31.70767 60.8886,-66.81033 62.0004,-71.29347 1.1255,-4.54484 -15.1938,-69.63584 -27.2088,-108.51688 -16.1517,-52.26782 -43.2606,-125.54656 -47.3553,-128.00768 -6.0443,-3.63291 -73.3948,-21.73134 -124.403,-33.42959 -52.8498,-12.12152 -116.7477,-24.11523 -126.17,-23.68407 -3.9287,0.17982 -42.9101,34.1469 -75.5586,65.83939 -42.7665,41.51409 -102.4495,106.6295 -104.2302,113.717 -0.8182,3.25715 9.7338,47.10362 19.9414,82.86199 17.9051,62.72297 50.4117,151.38026 56.569,154.28409 16.7883,7.91747 154.6647,41.30358 209.6055,50.75498 z m -94.801,-120.1886 c -22.5009,-11.55806 -35.9815,-23.83653 -50.4522,-45.95307 -21.8195,-33.34779 -25.8475,-61.82159 -14.2316,-100.60198 9.8626,-32.92611 27.0841,-54.34441 57.6398,-71.68627 18.7844,-10.66082 34.1716,-15.62314 54.2067,-17.48122 79.282,-7.3528 147.2544,51.80963 146.076,127.14285 -0.2906,18.58204 -9.1631,48.07751 -18.9429,62.97279 -21.9448,33.42418 -60.4728,55.99301 -101.4538,59.42956 -22.9106,1.92117 -53.4888,-3.88139 -72.842,-13.82266 z m -200.7735,37.68295 c 0.8482,-0.79871 -1.5354,-9.92073 -5.2969,-20.27116 -9.2896,-25.56098 -24.2411,-72.61271 -30.9285,-97.32968 -3.0254,-11.18301 -6.3948,-20.26094 -7.4874,-20.17316 -2.6572,0.21355 -11.4931,12.45027 -38.0596,52.70858 -12.2247,18.52487 -22.3932,35.41891 -22.5969,37.54234 -0.3159,3.29606 2.193,5.08111 17.1516,12.20328 13.3241,6.34392 76.4039,33.48758 84.4306,36.331 0.6847,0.24262 1.9389,-0.21251 2.7871,-1.0112 z m 458.1859,101.19187 c 36.7726,2.45409 78.3753,3.09578 81.6709,1.25973 2.4017,-1.33782 2.4502,-7.42768 0.2624,-32.79 -3.8828,-45.00917 -8.2673,-76.1181 -10.8097,-76.70077 -1.2162,-0.2787 -11.6964,9.66027 -23.2895,22.08656 -11.5931,12.42631 -34.6948,35.75531 -51.337,51.84223 -16.642,16.08694 -30.0072,29.96945 -29.7,30.85011 0.307,0.88064 2.4769,1.65549 4.8218,1.72188 2.3449,0.0665 15.1164,0.84504 28.3811,1.73026 z M 902.70802,417.86537 c 18.95661,-29.79188 49.46658,-73.07154 70.96588,-100.66832 l 13.0929,-16.80648 -2.759,-16.1509 c -7.3999,-43.31579 -12.8159,-83.26213 -16.0481,-118.36756 -1.9564,-21.24726 -4.1549,-39.55487 -4.8855,-40.68357 -1.546,-2.3881 -49.95567,1.59099 -82.525,6.78325 -89.50643,14.2693 -156.93494,41.38941 -186.33683,74.9457 -18.97012,21.65046 -18.12094,47.86173 2.66543,82.27755 28.27945,46.82186 81.80702,94.39669 160.98038,143.07775 12.59241,7.74265 23.8304,13.96218 24.97322,13.82112 1.14281,-0.14106 10.08734,-12.84387 19.87662,-28.22854 z m 780.76608,204.34692 c 123.7143,-11.38934 220.8148,-46.56746 249.0209,-90.21657 30.9468,-47.89039 -37.3155,-135.18081 -169.5923,-216.8666 -11.8987,-7.34796 -22.848,-13.4017 -24.3315,-13.45274 -1.6406,-0.0564 -12.9244,15.40362 -28.811,39.47416 -25.4449,38.55303 -41.1048,60.54326 -64.8433,91.05597 -11.3159,14.54539 -11.5881,15.11935 -10.3375,21.80108 8.4264,45.01876 19.0069,129.42782 20.8228,166.12205 0.1838,3.71417 5.8132,4.1318 28.0719,2.08265 z M 1057.4453,219.0646 c 22.8259,-24.50783 49.5182,-51.47344 70.353,-71.07306 11.0645,-10.40865 20.2608,-19.49469 20.4357,-20.19125 0.4933,-1.96344 -15.7703,-3.30045 -65.87,-5.41501 -25.3784,-1.07113 -47.6811,-1.33967 -49.5618,-0.59678 -3.0348,1.19896 -3.1234,4.75044 -0.7879,31.60369 2.4766,28.47767 7.7951,73.89302 9.0871,77.59766 1.225,3.51252 3.537,1.8255 16.3439,-11.92525 z m 565.5375,136.13028 c 9.6335,-12.20362 52.7561,-78.20742 53.7945,-82.33837 0.8406,-3.34517 -0.9103,-4.69575 -14.3786,-11.09068 -34.5029,-16.38227 -88.2783,-38.45145 -90.5213,-37.14956 -0.7574,0.43965 2.7483,12.44703 7.7909,26.68311 10.0241,28.30021 25.7166,78.72104 30.5574,98.18309 1.6858,6.77746 3.9175,12.51803 4.9592,12.75677 1.0419,0.2388 4.5509,-2.93121 7.7979,-7.04436 z M 1053.7961,59.871156 c 38.9664,0.227313 91.0124,3.5591 141.4579,9.055552 9.377,1.021693 18.1753,1.530329 19.5517,1.130272 1.3765,-0.399993 12.8202,-8.821038 25.4309,-18.713351 28.1714,-22.098663 64.3306,-47.8680808 97.3734,-69.394737 13.7327,-8.946412 25.3974,-16.883274 25.9219,-17.637432 0.5245,-0.754134 -6.5608,-11.204835 -15.7449,-23.223739 -47.7377,-62.472421 -94.6507,-107.730451 -138.6571,-133.765621 -70.0875,-41.46554 -108.8272,-29.05843 -144.4129,46.25105 -10.2321,21.65428 -28.4053,93.95535 -31.5733,125.611314 -3.0457,30.4370321 -5.147,71.550006 -3.8886,76.083816 1.2919,4.654213 0.2626,4.46115 24.5405,4.60278 z m 657.9458,151.121684 c 3.9618,-5.53544 24.0621,-49.79165 33.8437,-74.51553 10.6274,-26.86213 26.4415,-87.577017 28.5616,-109.657212 3.3304,-34.6840138 -0.7376,-67.6037 -10.526,-85.178695 -2.3582,-4.234271 -8.0149,-10.74862 -12.5704,-14.476338 -11.1052,-9.087377 -36.7069,-16.369694 -59.1009,-16.811075 -42.7805,-0.84316 -102.5279,13.683025 -165.71,40.288582 -27.0939,11.409122 -67.5836,31.520332 -69.0586,34.301497 -0.6352,1.197213 4.2278,11.2082402 10.806,22.2466621 16.1504,27.1003309 40.2823,73.2185899 56.1782,107.3618589 7.1951,15.45375 13.9153,28.81963 14.9346,29.70205 1.0191,0.88238 12.3713,5.4166 25.2274,10.07607 35.9708,13.03705 84.7548,32.94907 113.8753,46.48019 32.5548,15.12681 30.4561,14.4897 33.5391,10.18194 z m -258.5495,-94.52723 c 0.5314,-2.1156 -28.0541,-56.372758 -41.8076,-79.353063 -5.8515,-9.777322 -11.7874,-18.040079 -13.1908,-18.361699 -4.2749,-0.979689 -91.9538,58.669255 -93.2848,63.462755 -0.4002,1.441523 19.5967,6.580983 73.6616,18.931847 44.4121,10.14584 74.376,16.29747 74.6216,15.32016 z"
       id="path795"
       inkscape:connector-curvature="0"
       sodipodi:nodetypes="cccccscsscsscccscsccccccsccscccccccccccccccsccccsscsscssccsscccsccsscsccccsscccccccssscsscccscccscsccccccccccssccccccccccsccscccccccccccccssccccccsccssccsccccsscccccccsccsccccccccscsccs" />
  </g>
  <g
     id="g944"
     style="fill:#2a7fff"
     transform="translate(5.3013324,0.94583319)">
    <path
       id="path938"
       d="m 830.86523,800.86719 -0.35156,1.98828 c -2.93836,16.63915 -6.28509,25.70009 -11.55859,31.29687 -2.11068,2.24016 -5.5786,4.40664 -8.54492,5.33789 -4.10706,1.28931 -9.24919,1.6224 -15.87696,1.02735 -1.18791,-0.10666 -2.48497,-0.21458 -2.88281,-0.23828 -0.39795,-0.0237 -7.39687,-1.0581 -15.55273,-2.29883 -15.01935,-2.28494 -17.74581,-2.63081 -21.87305,-2.7793 -4.03091,-0.14505 -6.62847,0.0895 -9.23828,0.83594 -8.253,2.36018 -12.64221,10.10083 -16.39844,28.91992 -1.00414,5.04563 -4.75772,28.37758 -4.76172,29.61719 -0.007,2.02917 0.55637,4.20328 1.6211,6.25781 0.67691,1.30636 2.48912,3.74107 3.72265,5.00195 6.38047,6.52188 16.9509,11.62143 30.35742,14.64454 h 0.004 c 2.02374,0.45633 8.647,1.42329 8.99219,1.3125 0.12707,-0.0409 0.91131,-0.0104 1.74218,0.0684 2.14079,0.20336 6.45455,0.29518 8.98438,0.1914 14.49236,-0.59464 25.33472,-5.23964 28.86328,-12.36719 l 0.60156,-1.21875 1.50196,-9.32617 1.50195,-9.32617 -21.27344,-3.49805 -21.27539,-3.5 0.35547,-2.20703 0.35547,-2.20703 32.97266,5.23633 c 35.99624,5.71696 33.13027,5.32547 35.41796,4.85351 6.65597,-1.37311 13.77513,-9.20355 18.49805,-20.3457 2.80419,-6.61525 5.1366,-15.20776 5.78516,-21.30859 1.16511,-10.95947 0.60548,-20.12722 -1.70313,-27.91992 -2.03786,-6.87863 -5.51417,-11.99801 -9.6289,-14.17969 -1.71252,-0.90757 -2.57825,-1.09399 -11.73633,-2.52344 z m -40.875,94.62304 c 1.05398,-0.0192 2.11561,0.1677 3.1211,0.58789 1.79732,0.751 3.57728,2.51199 4.36523,4.32032 1.23402,2.83216 0.66822,6.33519 -1.39258,8.63672 -1.26777,1.41587 -3.41425,2.51622 -5.26562,2.69922 -0.83922,0.0832 -2.42607,-0.0391 -3.03906,-0.23438 -4.68207,-1.49151 -7.16409,-6.61379 -5.32422,-10.98828 1.28231,-3.0488 4.37323,-4.96382 7.53515,-5.02149 z"
       style="fill:#2a7fff;stroke-width:0.14421923"
       inkscape:connector-curvature="0" />
    <path
       id="path934"
       d="m 776.29883,749.45117 c -6.04837,0.0826 -11.46248,0.84369 -16.32813,2.28516 -6.8786,2.03783 -11.99799,5.51419 -14.17968,9.6289 -0.90926,1.71219 -1.09417,2.57824 -2.52344,11.73633 l -1.3457,8.6211 21.27539,3.5 21.27539,3.49804 -0.35547,2.20703 -0.35547,2.20704 -32.97461,-5.23633 c -30.39468,-4.82742 -28.52761,-4.92725 -29.28516,-4.82227 -3.13073,0.4339 -9.64246,0.98724 -12.39648,3.06445 -7.71021,5.81543 -13.73055,17.46745 -17.16211,33.21876 -1.00312,4.6045 -1.57438,11.68579 -1.42969,17.70117 0.37968,15.79402 5.60754,27.58648 13.49219,30.4375 0.7491,0.27029 2.99168,0.67169 9.86523,1.75976 l 8.90235,1.41016 0.35156,-1.98828 c 1.55377,-8.78572 3.37203,-16.02354 5.24805,-20.89258 5.05746,-13.12632 12.73848,-18.04002 26.93554,-17.23047 3.86061,0.22014 6.03467,0.5055 19.66993,2.58203 14.91541,2.27149 18.23807,2.69881 22.73437,2.91602 9.98416,0.48235 15.43694,-1.48208 19.4375,-7.00196 3.33884,-4.60683 5.66784,-11.2322 7.89844,-22.47461 1.03997,-5.2226 4.76553,-28.37544 4.76953,-29.61718 0.0299,-9.22711 -11.26318,-18.78458 -28.24609,-23.9043 -5.47628,-1.65089 -9.84466,-2.61553 -13.68165,-3.02344 -4.10575,-0.43648 -7.96277,-0.63161 -11.59179,-0.58203 z m -12.65821,10.32617 c 1.05398,-0.0192 2.11561,0.16772 3.1211,0.58789 1.79732,0.75106 3.57727,2.51203 4.36523,4.32032 1.23401,2.83218 0.67018,6.33517 -1.39062,8.63672 -1.26777,1.41584 -3.41426,2.51622 -5.26563,2.69921 -0.83917,0.0829 -2.428,-0.0391 -3.04101,-0.23437 -4.68207,-1.49149 -7.16407,-6.61574 -5.32422,-10.99023 1.28233,-3.04882 4.37323,-4.96186 7.53515,-5.01954 z"
       style="fill:#2a7fff;stroke-width:0.14421923"
       inkscape:connector-curvature="0" />
  </g>
  <path
     style="opacity:0.98999999;fill:#ffffff;fill-opacity:1;stroke-width:0.3079809"
     d="m 537.47035,793.89147 c -5.11078,-7.36115 -23.91106,-35.62428 -23.91106,-36.06646 0,-0.1744 1.50951,-3.58841 2.93098,-7.42202 9.23203,-24.89807 12.19278,-41.34459 12.19358,-61.91893 8.3e-4,-20.9449 -3.52607,-39.07672 -13.99595,-80.72655 l -0.86173,-7.42353 6.4695,-9.05345 c 9.61911,-13.46104 14.72292,-17.28539 15.10397,-17.28373 0.33202,10e-4 5.48374,1.80835 23.80461,7.38044 20.56136,6.25351 36.92466,10.07439 49.90998,11.5929 4.63269,0.54176 13.93773,0.72563 18.55124,0.26254 14.57707,-1.46323 32.40372,-6.11646 55.56327,-13.51431 12.095,-3.86351 17.89724,-5.2246 18.51803,-5.2246 0.77923,0 5.78419,5.81648 14.71137,16.05237 4.06264,4.65821 7.63402,8.85583 7.9364,9.19496 0.53181,0.59643 0.1667,1.22295 -3.11306,14.33045 -9.06609,36.2324 -12.11854,55.75454 -12.11253,74.98337 0.003,9.49706 0.70406,16.426 2.89444,27.20187 2.3775,11.69641 5.79515,20.4602 10.0341,31.83117 1.58987,4.26482 2.75697,8.81424 2.75697,9.14592 0,0.98315 -9.91763,18.66574 -19.00696,32.45379 -3.15938,4.79263 -5.77847,4.8507 -6.38282,4.8507 -1.68775,0 -7.36266,-0.52166 -19.10732,-3.39442 -21.81832,-5.33681 -29.37974,-7.22246 -45.76158,-8.03235 -8.13298,-0.40208 -31.32389,-0.20228 -37.57367,0.32372 -14.51383,1.22151 -22.99834,3.90173 -44.98757,9.57376 -6.87257,1.77275 -12.96289,2.52497 -13.20467,2.51854 -0.24179,-0.006 -0.86416,-0.92267 -1.35952,-1.63615 z"
     id="path967"
     inkscape:connector-curvature="0"
     sodipodi:nodetypes="cscsccscsccssscscssscssscscc" />
  <path
     id="path108"
     style="fill:#000000;fill-opacity:1;stroke-width:1.19164777"
     d="m 625.00195,74.019531 c -78.05214,-0.2385 -139.14034,5.560957 -207.3457,19.685547 -91.71459,18.993102 -188.38448,55.984082 -217.14844,83.093752 -9.26357,8.73079 -12.25211,13.10049 -13.85937,20.2539 -1.56304,6.95659 -0.15382,11.03575 6.57812,19.05274 36.95505,44.0092 66.82722,77.75862 69.99219,79.07617 2.65855,1.10674 11.54177,1.54092 31.69727,1.54492 15.40205,0.003 28.67293,0.43851 29.49218,0.96875 4.58442,2.96709 -2.53191,12.11272 -16.74804,21.52344 -5.37121,3.5556 -19.87056,11.89191 -32.22071,18.52344 -31.0139,16.65324 -44.7595,26.6218 -69.11523,50.125 l -12.93945,12.48633 0.50195,-26.18946 c 0.4574,-23.84845 0.85235,-27.87578 4.41211,-45.03711 2.15017,-10.36574 3.54223,-19.21559 3.09375,-19.66406 -0.44847,-0.44846 -9.75235,-0.76929 -20.67578,-0.71289 -20.87801,0.10776 -27.98895,1.17509 -47.68946,7.15625 -5.47466,1.66214 -10.16774,2.81076 -10.42773,2.55078 -0.82806,-0.82806 17.65311,-28.83735 27.21289,-41.24219 10.27942,-13.33864 21.59809,-23.55785 39.87109,-35.99609 11.3711,-7.74019 22.44231,-16.70068 10.92774,-10.62305 -1.83729,0.96976 -19.49239,11.94284 -30.81836,21.13477 -5.57095,4.52126 -13.26822,11.93842 -17.10547,16.48242 -15.37734,18.20948 -39.86825,56.52344 -36.13086,56.52344 0.2129,0 4.36789,-1.36884 9.23438,-3.04102 19.85223,-6.82146 31.73552,-9.06172 51.15234,-9.64648 10.1588,-0.30594 19.0965,-0.11913 19.86328,0.41601 1.04689,0.73064 0.81147,3.78888 -0.94531,12.28125 -4.23039,20.44987 -5.76739,34.87461 -5.77539,54.20899 -0.005,10.48649 0.32423,21.07738 0.73047,23.53515 0.40624,2.45778 1.00971,4.46875 1.34179,4.46875 0.33208,0 4.95453,-4.6539 10.27149,-10.34179 12.33734,-13.19798 30.94777,-29.18819 44.85742,-38.54102 5.98505,-4.02434 20.21077,-12.33387 31.61328,-18.46679 32.67571,-17.57489 45.60711,-26.76655 48.97461,-34.81055 1.42156,-3.3957 1.26042,-5.64066 -1.36914,-19.06641 -1.63927,-8.36962 -2.98333,-16.11274 -2.98633,-17.20703 -0.005,-2.36134 2.7677,-3.32358 33.95703,-11.79492 58.10729,-15.78252 123.00622,-27.93708 180.53516,-33.81055 91.78119,-9.37048 182.85143,-2.80853 290.16601,20.9082 32.87818,7.26617 84.06064,20.97854 86.16602,23.08399 0.39566,0.3956 -0.7478,8.18279 -2.54102,17.30664 -2.91448,14.82875 -3.08609,17.00552 -1.61914,20.50977 3.39576,8.11189 15.53367,16.75183 48.82422,34.75781 34.0661,18.42548 53.92419,33.16626 75.75589,56.23437 6.024,6.36526 11.3399,11.18765 11.8144,10.71485 1.512,-1.50665 1.7025,-42.53289 0.252,-54.29102 -0.7682,-6.22635 -2.6432,-17.48496 -4.166,-25.01758 -2.0659,-10.21991 -2.4155,-13.94225 -1.3789,-14.66601 0.764,-0.53344 9.7005,-0.71805 19.8593,-0.41211 19.3804,0.58366 31.1869,2.79692 51.1797,9.59375 4.882,1.65967 9.1564,2.73616 9.4981,2.39453 1.0217,-1.02169 -4.607,-10.82553 -16.2774,-28.35156 -17.5908,-26.41706 -25.8855,-35.57239 -46.1875,-50.98438 -8.967,-6.80714 -25.2191,-15.73047 -26.8633,-15.73047 -3.2987,0 4.6542,4.58617 15.9102,12.24805 24.8747,16.93191 34.7683,27.1493 53.9863,55.74609 10.9506,16.29494 14.1737,21.82323 12.7071,21.79493 -0.5083,-0.01 -5.1392,-1.32743 -10.2911,-2.92774 -18.4664,-5.7361 -27.6647,-7.10373 -48.0312,-7.14453 -10.5958,-0.0212 -19.6317,0.32693 -20.0801,0.77539 -0.4484,0.44847 0.935,9.29832 3.0742,19.66406 3.5202,17.05809 3.9413,21.33243 4.4278,45.05078 l 0.5371,26.20508 -12.9551,-12.5 c -24.5316,-23.673 -37.83747,-33.338 -68.91407,-50.05859 -35.0676,-18.86797 -50.67578,-30.22838 -50.67578,-36.88281 0,-4.24989 3.56828,-4.76421 31.1543,-4.48243 19.2433,0.19657 27.83466,-0.15052 30.94336,-1.2539 3.4317,-1.21802 10.44879,-8.70393 34.63089,-36.94141 47.5092,-55.47781 45.3697,-52.38344 42.7793,-61.82812 -4.7954,-17.48373 -29.1669,-34.70975 -79.58792,-56.25391 C 872.48845,97.615101 750.71146,74.403661 625.00195,74.019531 Z m -3.48633,3.136719 c 30.21178,0.01646 59.89792,0.922797 79.15626,2.716797 64.01616,5.9634 107.37097,13.118674 158.3789,26.138673 65.86516,16.81236 131.36502,42.21706 164.32222,63.73242 15.3798,10.04007 25.8555,22.91018 25.8555,31.76563 0,4.30801 -3.3309,8.57259 -39.9941,51.18945 -15.03381,17.47462 -27.81939,32.44445 -28.41409,33.26758 -0.8309,1.14995 -3.31666,0.45917 -10.72656,-2.98242 -34.0656,-15.82185 -118.22453,-39.14668 -184.21875,-51.05665 -49.36824,-8.90948 -90.08018,-13.61975 -136.74219,-15.82226 -87.84371,-4.14636 -197.91739,10.70769 -305.95508,41.28906 -23.97243,6.7857 -50.2829,15.33731 -64.71875,21.03516 -4.79063,1.89087 -11.22458,4.70049 -14.29882,6.24414 l -5.58985,2.80664 -18.4707,-21.45899 c -34.40145,-39.97011 -47.90438,-56.26727 -49.73242,-60.01953 -2.5889,-5.31403 -1.18529,-10.87379 4.77734,-18.92187 8.77235,-11.84056 26.61266,-23.36405 59.00586,-38.10938 63.84807,-29.06354 145.50765,-51.732897 225.4707,-62.593747 29.05337,-3.94612 33.13031,-4.397857 59.58203,-6.591797 21.36294,-1.77186 52.10079,-2.645371 82.3125,-2.628906 z M 319.2207,267.79102 c 0.0814,-0.006 0.1309,-10e-4 0.14649,0.0176 0.28427,0.33738 5.34089,23.82366 5.33789,24.79297 -9.3e-4,0.30541 -12.46782,0.66835 -27.70508,0.80664 -37.51148,0.3405 -41.88411,-1.40193 -23.44336,-9.33984 9.86583,-4.2468 43.14031,-16.0803 45.66406,-16.27734 z m 599.625,0.002 c 2.55249,0.20116 35.76361,12.00443 45.68555,16.27539 5.5217,2.37683 10.25036,4.96156 10.50586,5.74414 0.271,0.83004 -1.61519,1.98392 -4.52539,2.76758 -3.2158,0.86592 -14.25498,1.20583 -31.0586,0.95898 -14.33792,-0.21063 -26.06942,-0.44107 -26.07031,-0.51367 -0.0114,-0.74677 5.09496,-24.97656 5.31446,-25.2168 0.0167,-0.0183 0.0661,-0.0221 0.14843,-0.0156 z m -537.53515,51.88867 -48.38867,54.06641 c -57.43537,64.17299 -54.8624,61.16566 -54.0879,63.18359 0.33914,0.88359 5.80296,3.38078 12.14063,5.54883 49.29758,16.86415 84.61621,50.20668 93.95703,88.70117 4.40136,18.13843 3.40164,50.80585 -2.45312,80.16211 -9.79487,49.11214 -34.01991,103.98532 -59.37696,134.49609 -2.65761,3.19779 -23.80045,22.4277 -46.98437,42.73438 -23.18391,20.30668 -42.44135,37.67157 -42.79297,38.58789 -0.37641,0.98087 5.66443,9.44185 14.6875,20.57422 69.91404,86.25767 107.1809,131.55628 108.71875,132.14648 1.25103,0.48 6.91632,-4.6603 18.15234,-16.4707 l 16.33203,-17.16797 9.47461,9.05274 c 19.94401,19.05439 41.70189,33.03611 67.61133,43.44531 20.16435,8.10046 58.76706,27.53396 71.64258,36.06646 15.56108,10.3121 24.84548,21.4512 47.6543,57.1758 8.35945,13.093 10.06097,15.0589 15.35937,17.7538 3.27703,1.6668 7.29899,3.472 8.9375,4.0117 5.28296,1.7401 14.80673,0.2346 22.23242,-3.5136 6.27399,-3.1676 7.7439,-4.6468 12.82227,-12.914 9.53218,-15.5181 28.32809,-42.1612 34.53516,-48.9532 11.3564,-12.4272 44.78913,-31.2753 87.04882,-49.07423 29.64172,-12.4845 48.46687,-24.52305 68.99219,-44.12304 l 9.34766,-8.92774 16.33203,17.16797 c 11.36087,11.9416 16.89322,16.95234 18.17383,16.46094 2.76812,-1.0622 123.16409,-149.57726 123.16409,-151.92969 0,-1.18455 -17.90914,-17.73967 -42.84964,-39.61328 -23.5668,-20.66876 -45.34826,-40.68416 -48.4043,-44.47852 -22.39042,-27.80013 -44.65271,-76.60355 -55.28711,-121.20312 -7.12461,-29.87989 -9.68878,-65.95842 -6.05468,-85.20313 6.39936,-33.88838 28.29586,-61.17349 66.26171,-82.57031 7.37877,-4.15854 30.74184,-13.79741 36.51954,-15.06641 4.6422,-1.01958 5.77532,-3.65479 3.04492,-7.08398 -1.1487,-1.44278 -24.28362,-27.40324 -51.41016,-57.68945 -45.87445,-51.21778 -49.59246,-55.06641 -53.19531,-55.06641 -9.53741,0 -41.90739,7.71355 -59.8418,14.25977 -22.95114,8.37738 -50.83229,25.00501 -93.57422,55.80468 l -15.2207,10.96875 h -22 -22.00195 l -10.13868,13.70313 c -5.57699,7.53716 -10.62572,13.70312 -11.21874,13.70312 -0.59308,0 -5.73434,-6.16596 -11.42383,-13.70312 L 597.4043,401.00195 h -21.90821 -21.91015 l -13.03125,-9.4707 c -30.7953,-22.37829 -61.72713,-41.92168 -80.20313,-50.67383 -19.47128,-9.22364 -52.6833,-18.71759 -71.67187,-20.48828 z m 3.29297,7.20117 6.56836,0.82227 c 17.58449,2.19704 48.27941,11.15506 65.21289,19.0332 16.53871,7.69448 48.75732,28.141 81.4375,51.67969 l 13.51367,9.73242 h 21.21289 21.21484 l 11.44922,15.32031 11.44727,15.32032 v 33.5371 c 0.27075,12.37482 -0.0859,25.91689 0.0488,37.11133 -0.003,0.007 0.007,-0.006 0,0.006 0.10872,9.86784 0.99387,80.47951 2.42824,80.47951 1.56365,0 1.77515,-11.83188 2.29637,-77.5049 l 0.59571,-75.07422 11.19726,-14.59765 11.19727,-14.59766 h 21.12695 21.125 l 14.79883,-10.53516 c 31.27786,-22.27079 61.12287,-41.52092 75.84766,-48.92187 16.07894,-8.08157 51.26712,-18.69902 69.54296,-20.98242 l 6.63282,-0.82813 46.23242,51.65625 c 25.42749,28.4113 46.98013,52.54057 47.89453,53.6211 1.493,1.7641 1.01549,2.17545 -4.66992,4.02929 -21.79931,7.108 -49.41715,23.92501 -65.42774,39.83789 -22.91891,22.77906 -33.08816,46.48544 -34.34375,85.28125 0.23043,7.51037 1.03896,57.2529 24.79493,115.8711 l 3.56445,8.63867 -158.68164,-0.002 0.77734,-8.04297 c 1.14041,-11.78294 4.58787,-34.57842 5.40235,-35.72461 0.28996,-0.40767 10.02734,-43.14258 10.02734,-43.14258 0,0 -8.48329,-10.03866 -14.57422,-17.10742 -8.71519,-10.11429 -11.55714,-12.69801 -13.33789,-12.13281 -20.13756,7.57597 -30.31332,11.03765 -57.61914,16.69921 -16.68548,3.37843 -26.7356,4.49786 -38.82227,1.3711 L 546.35938,573.375 c -4.35681,-1.32479 -8.55716,-2.3405 -12.62696,-3.09766 l -20.92578,23.94532 -4.34375,5.30859 4.48828,16.63672 c 4.95668,18.37325 10.21332,46.15512 11.4336,60.42969 l 0.78906,9.23437 c -56.20089,-9.5e-4 -105.79782,-0.0117 -158.63086,-0.0117 l 3.50586,-8.49804 c 5.74751,-13.93786 12.98008,-36.43697 16.61328,-51.67969 5.7468,-24.11025 7.60507,-39.55949 7.66797,-63.75391 0.0495,-19.00938 -0.30928,-23.48951 -2.60352,-32.5332 -3.14004,-12.37754 -8.75791,-25.00096 -15.8125,-35.53516 -6.69208,-9.99285 -24.60833,-27.53792 -35.74804,-35.00781 -11.07198,-7.42451 -33.11441,-18.60055 -43.51172,-22.06055 -7.07883,-2.35569 -7.68621,-2.80597 -6.17774,-4.57617 0.92023,-1.07991 22.47294,-25.20812 47.89649,-53.61914 z m 150.91992,247.78711 c 1.31081,0.23284 13.29365,3.95394 24.3125,7.31836 25.079,7.65746 46.53314,12.06147 58.76367,12.0586 15.43729,-0.003 37.84334,-4.774 67.01953,-14.26954 8.10531,-2.63791 15.17241,-4.79492 15.70508,-4.79492 0.5327,0 5.92928,5.69763 11.99219,12.66211 l 11.02343,12.66211 -4.96484,19.81055 c -9.53529,38.0393 -12.54842,63.78198 -9.85156,84.1582 1.81577,13.71907 6.3333,31.62406 10.84765,42.98828 1.94659,4.90026 3.53907,9.32908 3.53907,9.8418 0,0.95142 -22.02682,35.80294 -23.66993,37.45117 -0.49723,0.49876 -7.03795,-0.68931 -14.53515,-2.63867 -28.41085,-7.38719 -40.0756,-8.95313 -66.66016,-8.95313 -26.64236,0 -38.85257,1.64372 -66.37304,8.93555 -7.34042,1.94491 -13.56637,3.53516 -13.83399,3.53516 -0.26762,0 -6.00084,-8.44493 -12.74023,-18.76758 L 513.8457,757.90039 516.54492,750.75 c 16.38875,-43.41355 16.8686,-71.7486 2.21094,-130.61914 l -4.92969,-19.79688 10.60352,-12.65429 c 8.00744,-9.55552 11.09375,-13.00977 11.09375,-13.00977 z m -170.94141,115.9082 h 160.32422 l -0.0117,3.2754 c -0.0264,12.33882 -6.53661,39.86805 -13.15234,55.61718 l -3.46485,8.24805 2.61524,4.26367 c 10.84857,17.69381 25.05865,38.22662 26.45703,38.22656 0.93008,0 10.44228,-2.12749 21.13672,-4.72656 10.69445,-2.59909 25.14349,-5.54707 32.10937,-6.55273 16.00804,-2.31096 43.53493,-2.29173 58.96875,-0.01 29.99339,6.37768 52.48828,12.10352 52.48828,12.10352 0,0 15.18612,-13.73493 29.49805,-41.67969 0.40566,-1.05713 -3.03485,-4.79849 -4.5664,-8.26172 -5.46952,-14.92457 -13.36886,-39.51884 -13.77735,-57.23047 l -0.0215,-3.27344 h 160.39843 l 2.49805,5.14063 2.49609,5.14063 35.32422,55.5332 10.17969,8.70703 c 25.16503,21.52245 70.79347,62.04157 71.16797,63.19922 0.2273,0.70289 -9.81888,13.84075 -22.32617,29.19531 -12.50731,15.35457 -28.17822,34.61991 -34.82422,42.8125 -6.6461,8.19258 -13.66592,16.74894 -15.59961,19.01367 0,0 -8.31399,10.3824 -24.48439,30.23828 -9.43461,11.5808 -17.47656,21.03 -17.87304,21 -0.39647,-0.0304 -7.68954,-7.53644 -16.20508,-16.68164 -8.51555,-9.1453 -16.00788,-16.6289 -16.65039,-16.6289 -0.64251,0 -4.458,3.26129 -8.47852,7.24609 -10.62667,10.77819 -21.93432,21.60966 -35.32421,28.58594 -27.05084,14.09378 -54.00501,25.42329 -80.45784,39.2559 -40.74465,21.3047 -48.26737,28.4114 -76.30274,72.082 -9.89547,15.414 -11.19763,16.9321 -17.11133,19.9414 -3.5203,1.7914 -7.07136,3.2664 -7.89062,3.2774 -1.18414,0.016 -1.48828,-31.8659 -1.48828,-155.49025 0,-102.87887 -0.75856,-166.08787 -1.54691,-166.08787 -0.78835,0 -0.83786,63.209 -0.83786,166.08787 0,123.62435 -0.30414,155.50625 -1.48828,155.49025 -0.81926,-0.011 -4.37032,-1.486 -7.89062,-3.2774 -5.9137,-3.0093 -7.21586,-4.5274 -17.11133,-19.9414 -15.72736,-24.4985 -29.29525,-42.0337 -37.53321,-48.5058 -15.0756,-11.8441 -50.14293,-30.4981 -80.16601,-42.64651 -29.46375,-11.9221 -47.83672,-23.84931 -72.37305,-46.97851 -5.39653,-5.087 -10.3361,-9.06575 -10.97851,-8.84375 -0.64239,0.222 -7.97861,7.64223 -16.30078,16.49023 -8.32214,8.8479 -15.49765,16.23738 -15.94532,16.42188 -0.44766,0.1845 -14.43616,-16.43736 -31.08593,-36.93946 -16.64974,-20.50219 -42.25156,-51.96847 -56.89258,-69.92383 -14.64102,-17.95535 -26.87378,-33.31057 -27.18555,-34.12304 -0.52052,-1.35645 20.52061,-20.4639 64.52734,-58.59571 23.03535,-19.9601 34.72435,-35.44016 50.4336,-66.78906 z M 68.195312,731.08203 v 0.002 0.002 c -0.760784,-0.005 -0.92921,1.28223 -0.484374,3.88086 1.13424,6.62598 7.701227,62.73143 9.054687,77.35937 3.90464,42.20074 18.011699,79.20727 42.794925,112.26172 11.10485,14.8109 47.0573,51.01467 70.86133,71.35547 28.27431,24.16075 68.85471,55.31455 108.99414,83.67775 7.35752,5.199 13.37695,9.8435 13.37695,10.3223 0,0.479 -7.25512,5.0615 -16.12109,10.1816 -17.18442,9.9242 -20.82032,13.7496 -20.82032,21.9043 0,9.0604 4.17491,13.6292 30.38672,33.2559 76.44408,57.2393 170.09145,100.2021 249.05469,114.2578 11.33517,2.0177 19.4549,3.0194 44.08984,5.4414 9.51692,0.9356 48.02585,-0.4808 62.5625,-2.3008 79.4827,-9.9513 171.61691,-48.3886 254.71094,-106.2637 16.98952,-11.8332 39.23891,-29.6276 42.31641,-33.8437 1.2375,-1.6952 2.55543,-5.3549 2.92773,-8.1309 0.8381,-6.2488 -2.71722,-14.1136 -7.64062,-16.9043 -17.1273,-9.7077 -28.98571,-17.0761 -28.70508,-17.8359 0.18679,-0.5058 11.33373,-8.8155 24.76953,-18.4668 96.94118,-69.6353 154.51918,-122.2782 180.81838,-165.32229 16.6306,-27.21915 26.9949,-59.27047 30.1465,-93.22266 1.3885,-14.95806 7.9503,-71.05813 9.0918,-77.72656 1.294,-7.55964 -2.6084,-4.01232 -11.1465,10.1289 -9.1663,15.18167 -15.2033,26.72674 -17.7578,33.9668 -1.5874,4.4991 -14.5016,28.29684 -15.3555,28.29688 -0.2377,0 -3.7783,-4.15694 -7.8691,-9.23633 -5.4127,-6.7205 -10.1251,-14.83251 -17.3047,-29.79102 -5.4264,-11.30575 -10.4093,-20.55469 -11.0743,-20.55469 -0.6651,0 -1.4979,1.74103 -1.8496,3.8711 -1.0862,6.57734 -4.2164,42.23723 -5.414,61.66797 -1.3239,21.47853 -3.2006,30.28739 -8.9707,42.09179 -7.0295,14.38042 -15.0581,23.76611 -33.2617,38.88868 -47.24198,39.24512 -127.99529,101.11503 -159.16802,121.94533 -27.37377,18.2921 -41.17111,31.0183 -47.42578,43.7461 -2.68539,5.4646 -3.2207,8.1395 -3.2207,16.0879 0,8.341 0.44246,10.3307 3.53711,15.9179 1.94534,3.5122 5.62629,8.1738 8.17969,10.3594 l 4.64258,3.9746 -10.88086,7.1446 c -21.01597,13.7998 -55.01624,29.7255 -83.53125,39.1269 -106.237,35.0253 -224.13456,26.6141 -321.73438,-22.957 -9.5089,-4.8296 -22.30602,-12.0375 -28.4375,-16.0176 l -11.14844,-7.2363 5.34375,-5.0274 c 8.30811,-7.8162 10.94991,-13.9013 10.97461,-25.2851 0.0172,-7.9744 -0.50701,-10.6055 -3.20117,-16.0879 -6.13932,-12.493 -20.27142,-25.6329 -45.68945,-42.4766 -41.8004,-27.70275 -169.37915,-127.42703 -180.67188,-141.22851 -15.43281,-18.8613 -20.69875,-33.59022 -22.51172,-62.9707 -1.23398,-19.99745 -4.31137,-55.41922 -5.35742,-61.66797 -0.35658,-2.13007 -1.18005,-3.87109 -1.83008,-3.87109 -0.65002,0 -5.68188,9.30173 -11.18359,20.67187 -6.95658,14.37687 -12.2109,23.44978 -17.25,29.79102 -3.98525,5.01499 -7.47685,9.11914 -7.75977,9.11914 -0.9147,0 -13.763026,-23.55095 -15.437496,-28.29688 -2.55444,-7.24006 -8.589539,-18.78512 -17.755859,-33.96679 -5.603148,-9.28017 -9.211646,-13.99939 -10.664063,-14.00977 z m 3.689454,8.94922 6.173828,10.10156 c 7.30666,11.95211 12.137468,21.33559 15.392578,29.90235 2.78934,7.34095 16.746898,32.09179 18.097658,32.09179 0.512,0 4.47907,-4.1569 8.81445,-9.23633 6.06049,-7.10054 10.03319,-13.63045 17.1875,-28.25 8.33828,-17.03894 9.37831,-18.64936 10.01758,-15.49218 1.01761,5.02578 3.00598,28.85142 4.32031,51.78515 2.40257,41.92235 11.18097,58.92375 44.91602,86.98829 44.04254,36.63944 125.09461,98.64209 161.26953,123.36522 23.09833,15.7866 37.99526,29.4417 42.86719,39.2969 2.04592,4.1386 3.07794,8.5068 3.3789,14.3008 0.38229,7.36 0.0268,9.1126 -3.00781,14.8925 -2.20241,4.1949 -5.84772,8.49 -10.13672,11.9454 -9.19092,9.5884 -42.80083,19.6376 -42.85742,21.8437 0,0 3.44762,1.353 13.44141,-2.9043 0.3179,-0.2083 12.86511,-4.9559 17.79882,-7.4941 l 8.96875,-4.6133 10.09766,6.5566 c 34.10403,22.1513 73.11418,38.4974 120.01758,50.2871 51.80043,13.0206 118.34378,15.0787 174.89844,5.4102 51.63607,-8.8276 105.4939,-29.3925 145.95898,-55.7324 l 10.12891,-6.5938 8.08789,4.3985 c 11.32403,6.1588 31.03767,11.8704 32.42773,10.4804 0.70636,-0.7064 -4.87364,-1.7364 -6.66992,-2.4824 -30.48039,-12.6589 -41.24433,-19.9201 -47.01563,-31.7168 -2.7277,-5.5751 -3.11893,-7.6731 -2.71289,-14.5664 0.31731,-5.3868 1.44719,-10.0264 3.41211,-14.0117 4.19111,-8.5005 19.79972,-23.582 35.11328,-33.9297 39.25661,-26.5265 114.81119,-83.99217 166.92972,-126.96485 35.5615,-29.32153 44.5827,-46.36104 46.9961,-88.75586 1.1952,-20.99469 3.1462,-44.42364 4.2675,-51.21875 0.651,-3.94508 1.1427,-3.21506 10.0293,14.89649 7.1719,14.6169 11.179,21.19084 17.2325,28.27929 4.3377,5.0794 8.3483,9.23438 8.9121,9.23438 1.3475,0 14.6918,-23.86511 17.8242,-31.875 3.4413,-8.7997 8.3958,-18.38122 15.5683,-30.11914 l 6.1739,-10.09961 -0.6992,7.14844 c -0.3834,3.93244 -1.7388,14.9263 -3.0118,24.42969 -1.273,9.50337 -2.896,24.24925 -3.6093,32.76953 -3.5847,42.8266 -14.4322,76.05056 -34.7715,106.50976 -28.051,42.00775 -84.9056,92.53953 -184.51369,163.99413 -49.48729,35.5001 -58.51623,44.35 -49.45508,48.4785 3.74597,1.7068 14.4038,-0.064 34.55859,-5.7441 7.86487,-2.2165 17.24872,-4.3498 20.85352,-4.7402 5.6457,-0.6115 7.02734,-0.3348 9.96484,1.9921 3.1318,2.4809 3.36238,3.1942 2.83008,8.7344 -0.5231,5.4431 -1.18586,6.5901 -6.78906,11.7422 -8.9554,8.2345 -35.10423,27.613 -53.07617,39.334 -77.90297,50.8069 -157.07708,83.0745 -230.58203,93.9746 -18.5034,2.744 -63.00317,3.9665 -80.4375,2.209 -77.3067,-7.7926 -164.50945,-41.6421 -247.86133,-96.209 -18.31191,-11.988 -44.25795,-31.1993 -53.04102,-39.2754 -5.64,-5.186 -6.3007,-6.3271 -6.82422,-11.7754 -0.52786,-5.4936 -0.28713,-6.2629 2.69336,-8.6074 4.61818,-3.6326 9.34502,-3.2878 28.88672,2.1133 21.49954,5.9422 34.26465,8.17 36.99805,6.457 3.38769,-2.1232 2.99809,-5.8506 -1.09961,-10.5176 -5.90001,-6.7198 -17.97858,-16.1558 -51.10937,-39.9316 C 181.29467,990.7116 126.22849,938.58762 101.36719,888.75391 88.530838,863.02388 81.947405,838.10408 79.234375,804.9707 c -0.7245,-8.84798 -2.335308,-23.86378 -3.580078,-33.36718 -1.24476,-9.50338 -2.602818,-20.4953 -3.017578,-24.42774 z m 245.216764,352.27025 9.46289,7.2129 c 11.34548,8.6476 20.78516,17.6009 20.78516,19.7129 0,2.6537 -9.25873,1.6742 -25.61914,-2.709 -8.52028,-2.2827 -19.36717,-5.0343 -24.10352,-6.1152 l -8.61133,-1.9648 6.22852,-3.7247 c 3.42553,-2.0483 9.74496,-5.6793 14.04297,-8.0683 z m 604.11133,0.062 13.9375,7.9414 13.9375,7.9395 -5.63867,1.3574 c -3.1009,0.7463 -14.09521,3.5613 -24.43164,6.2559 -19.81466,5.1655 -28.27539,6.1293 -28.27539,3.2226 0,-2.1206 14.11379,-15.2428 23.40429,-21.7597 z"
     inkscape:connector-curvature="0"
     sodipodi:nodetypes="ssssccccssccccscccsssccssscscsscsssscssscscscccccsccccsccccccccccssssccssssscscccsssscccccssssccccsccccccscccccccssscscsccccccccccccsccccsccsssccssscccccscccccsccccscccccccccscccccccscccccsccccccccccccccccccccccccccccccscsscccsssccscscccccccccccccccccccccccccccccscccccscsccccsssccccscccccscscccccsscscscssscssccccccccscccssccccccsccccccccccscsscsscscsccccsscscsscsccccccccsscccccccssccsscsccccsccscscccccccscccccccscsccccscccccccccccscc" />
  <g
     aria-label="T"
     style="font-style:normal;font-variant:normal;font-weight:normal;font-stretch:normal;font-size:192px;line-height:1.25;font-family:'Bitstream Charter';-inkscape-font-specification:'Bitstream Charter';letter-spacing:0px;word-spacing:0px;fill:#000000;fill-opacity:1;stroke:none"
     id="text4414"
     transform="translate(178.01295,-12.319235)">
    <path
       d="m 386.81011,630.91458 v 29.568 h 10.56 l 2.688,-17.856 2.688,-2.88 h 29.568 v 108.48 l -3.456,2.688 -12.864,0.96 v 7.872 h 50.112 v -7.872 l -12.864,-0.96 -3.456,-2.688 v -108.48 h 29.568 l 2.688,2.88 2.688,17.856 h 10.56 v -29.568 z"
       id="path960"
       inkscape:connector-curvature="0" />
  </g>
  <path
     style="opacity:0.98999999;fill:#f4eed7;fill-opacity:1;stroke-width:0.61596173"
     d="m 239.44083,264.78081 c -50.63826,-59.08323 -51.18114,-59.81286 -49.63733,-66.71133 1.5968,-7.13526 10.12903,-17.40133 20.71548,-24.9251 21.68088,-15.40856 65.663,-35.08086 113.6166,-50.81838 71.98107,-23.622904 150.0389,-38.200159 232.83354,-43.481531 16.22241,-1.034808 88.16699,-1.450536 109.33321,-0.631776 48.96388,1.89404 106.54181,9.089261 155.89315,19.481173 78.47482,16.524434 161.5866,46.545524 201.56852,72.809214 12.0598,7.92195 22.1812,19.11404 24.5005,27.09224 1.9996,6.87838 3.3201,5.05171 -41.8246,57.85508 l -26.40816,30.88819 -2.04222,-0.56388 c -1.12321,-0.31014 -4.91131,-1.82708 -8.41792,-3.37098 -19.28047,-8.48878 -48.27551,-18.11367 -83.98688,-27.87939 -88.7353,-24.26576 -173.89576,-37.36227 -255.31615,-39.26413 -60.76596,-1.4194 -141.01971,7.58476 -217.4345,24.3953 -60.28038,13.26112 -124.56575,32.64612 -148.99477,44.92879 -2.73258,1.37391 -5.04377,2.49302 -5.13599,2.4869 -0.0922,-0.006 -8.76033,-10.03679 -19.26248,-22.29039 z"
     id="path986"
     inkscape:connector-curvature="0" />
  <path
     style="opacity:0.98999999;fill:#e9ddaf;fill-opacity:1;stroke-width:0.05444384"
     d="m 281.43495,293.37083 c -11.17049,-0.20244 -16.47473,-0.80701 -18.00892,-2.05263 -0.88997,-0.72256 -0.33501,-1.71322 1.70221,-3.03865 1.97263,-1.28341 5.86367,-3.1491 10.61655,-5.09046 11.56659,-4.7245 41.63973,-15.35273 43.44136,-15.35273 h 0.17987 l 0.14114,0.53083 c 0.87284,3.28276 5.15542,23.32168 5.15542,24.1231 0,0.13993 -0.0591,0.15671 -0.78943,0.22411 -2.35252,0.21712 -10.24667,0.4441 -20.98811,0.60349 -5.0346,0.0747 -18.42526,0.10776 -21.45009,0.0529 z"
     id="path1002"
     inkscape:connector-curvature="0" />
  <path
     style="opacity:0.98999999;fill:#e9ddaf;fill-opacity:1;stroke-width:0.05444384"
     d="m 942.59433,293.55562 c -8.83486,-0.10468 -27.00756,-0.43725 -28.57324,-0.5229 l -0.61634,-0.0337 0.0359,-0.22577 c 0.37463,-2.35549 4.11068,-20.16611 5.0695,-24.16746 0.16368,-0.68306 0.20779,-0.80304 0.29526,-0.80304 0.0566,0 0.47713,0.096 0.9346,0.21329 6.21937,1.59485 36.29668,12.4008 44.90407,16.1328 3.65033,1.58271 7.41783,3.48359 9.09104,4.58685 1.38079,0.91045 1.54776,1.21307 1.00337,1.81855 -0.79029,0.87899 -3.22124,1.88344 -5.41224,2.23629 -2.17941,0.35098 -5.71104,0.57511 -11.16099,0.70834 -3.149,0.077 -11.34393,0.10686 -15.57094,0.0568 z"
     id="path1004"
     inkscape:connector-curvature="0" />
  <path
     style="opacity:0.98999999;fill:#f4eed7;fill-opacity:1;stroke-width:0.15399045"
     d="M 204.73047 229.87305 L 203.95703 230.59961 C 201.69504 232.72168 196.2684 236.77904 188.78516 241.94336 C 169.77083 255.0655 159.15085 264.89215 148.1875 279.51367 C 140.21836 290.1419 126.71793 310.37447 123.41406 316.63867 C 122.62347 318.13765 122.57496 318.39648 123.08398 318.39648 C 123.65091 318.39648 128.64915 317.12154 132.11719 316.0918 C 153.55488 309.7265 158.72927 308.92599 179.62305 308.74414 C 192.14322 308.63517 200.93188 308.92407 201.4707 309.46289 C 201.66804 309.66023 201.39492 312.33065 200.7832 316.16406 C 200.19105 319.8749 199.57096 323.1676 197.94336 331.25586 C 195.0059 345.85333 194.44861 351.21727 194.07812 368.48242 L 193.97461 373.33789 L 193.95703 372.96875 C 193.94583 372.73407 193.93473 372.8716 193.92773 373.30859 C 193.92164 373.71284 193.80635 379.74111 193.67188 386.70312 C 193.53739 393.66512 193.42589 399.56831 193.42578 399.82227 L 193.42578 400.2832 L 193.95703 399.76172 C 194.74944 398.98212 206.74547 387.41994 208.75391 385.5 C 213.10078 381.34465 217.10777 377.64775 220.80078 374.38477 L 221.95703 373.36328 L 221.9375 373.36328 L 223.10352 372.32031 C 227.50952 368.38222 235.64055 362.00673 241.14062 358.17773 C 249.94578 352.04783 258.80602 346.70684 272.70312 339.14844 C 295.25566 326.88251 306.26333 320.39766 312.51562 315.69727 C 322.01746 308.5539 326.93685 302.14577 325.38281 298.93555 C 325.193 298.54345 324.82492 298.10078 324.54492 297.92773 C 323.43882 297.24413 317.81343 297.02628 296.26953 296.83984 C 271.36692 296.62434 265.52206 296.32435 263.05664 295.13086 C 260.23152 293.76324 239.0965 270.24422 210.52344 236.67578 L 204.73047 229.87305 z "
     id="path1006" />
  <path
     style="font-style:normal;font-variant:normal;font-weight:normal;font-stretch:normal;font-size:96px;line-height:1.25;font-family:'Bitstream Charter';-inkscape-font-specification:'Bitstream Charter';letter-spacing:0px;word-spacing:0px;fill:#000000;fill-opacity:1;stroke:none;stroke-width:4.27561522"
     d="m 682.73904,107.22748 -21.78123,-0.0446 0.0376,4.95844 7.06004,1.50217 1.17117,1.73854 -12.29666,58.12124 -17.75124,-66.36487 -7.36679,-0.0144 -16.45435,64.93152 -14.00006,-57.30638 0.82898,-1.73451 6.62044,-0.97783 -0.0376,-4.95842 -23.56937,-0.0488 0.0376,4.96093 6.64274,1.74747 18.24647,76.53096 7.0498,0.0159 16.96088,-67.78219 18.28831,67.85178 7.15476,0.0145 16.15894,-76.46049 7.03508,-1.72272 z m 34.50852,2.03672 -28.23094,75.5305 -6.1648,1.01135 -0.23836,5.07244 20.5932,1.60006 0.23837,-5.07242 -6.80023,-1.1475 -0.96862,-1.81477 8.57281,-23.04908 24.79394,1.928 6.45077,24.21555 -0.81734,1.67436 -6.54219,0.11272 -0.23836,5.0724 23.84856,1.85472 0.23835,-5.07243 -6.2343,-1.97542 -21.56658,-79.40136 z m 44.65814,4.77412 -0.46938,4.92311 5.88915,1.60015 1.61271,1.98097 -6.46964,67.80194 -1.94256,1.46616 -6.0181,-0.24743 -0.48204,5.04377 24.88681,3.60126 0.48205,-5.04376 -5.90181,-1.47949 -1.61274,-1.97847 2.79508,-29.28711 c 1.8939,0.14929 3.68295,0.28388 5.25143,0.51083 9.51544,1.37684 13.28856,5.16485 15.14891,15.66377 1.44432,8.19315 1.09733,16.25387 5.62327,22.14838 2.17013,2.80906 5.51524,4.41524 10.22068,5.09608 2.40501,0.34799 5.05575,0.35774 8.26316,0.0733 l 0.44612,-4.67671 -0.94224,-0.13623 c -7.94695,-1.14989 -11.15226,-3.11115 -12.75986,-10.70417 -1.33026,-6.05587 -0.78857,-12.83832 -3.17621,-18.92242 -1.70378,-4.36337 -5.01294,-7.46169 -9.98398,-9.80276 11.57487,-1.31925 17.88041,-7.39479 18.89029,-17.97739 1.44438,-15.1356 -6.14707,-23.34532 -23.08664,-25.79639 z m -187.56675,-5.74971 -50.28938,3.36982 0.28398,4.95188 6.0273,0.34108 1.88206,1.61194 3.89767,68.20333 -1.68539,1.85353 -5.94864,1.01887 0.29055,5.0757 54.06692,-3.62173 -1.15356,-20.17639 -5.45834,0.36492 -1.07144,12.62162 -1.35712,2.07937 -28.13434,1.88353 -1.9816,-34.6578 17.21764,-1.15369 1.57561,1.75769 1.55955,8.8434 4.93524,-0.33014 -1.55773,-27.23133 -4.9331,0.33021 -0.53488,9.10601 -1.37024,1.83168 -17.21763,1.15373 -1.78933,-31.31862 24.25172,-1.62268 1.57561,1.7577 2.07156,10.42278 5.87855,-0.39316 z m 204.17578,13.89117 5.01879,0.72724 c 12.96609,1.87613 18.79299,7.45862 17.57172,20.25621 -1.16254,12.1823 -7.58084,16.11969 -20.12866,14.30407 -0.62741,-0.0908 -2.50921,-0.36204 -5.73899,-0.95412 z m 53.36753,2.28226 -2.7622,18.77867 5.7045,1.23297 3.11868,-11.02661 1.72063,-1.51425 15.96747,3.4496 -10.13227,68.89538 -2.11768,1.30363 -7.03565,-0.89082 -0.73617,4.9996 27.06272,5.84907 0.73403,-4.99966 -6.85747,-2.11065 -1.61485,-2.11223 10.13224,-68.89286 15.96746,3.44959 1.18177,2.14257 -0.21632,11.65492 5.70235,1.23288 2.7622,-18.77868 z m -113.56405,-2.07781 9.2064,35.10868 -21.22203,-1.64974 z m -225.60465,-6.58997 c -2.47761,-0.16606 -5.21551,-0.0681 -8.21548,0.28907 l -26.66684,3.17579 0.46633,4.93298 6.03017,0.0309 1.94146,1.51564 6.42856,67.96603 -1.61398,1.93925 -5.9022,1.32575 0.47712,5.05949 27.60879,-3.28679 c 17.77755,-2.11649 26.47515,-11.88637 25.00528,-27.42892 -1.14324,-12.08865 -8.86014,-18.77808 -21.31608,-17.41989 9.73577,-4.40239 14.26528,-11.30201 13.37868,-20.67689 -1.04262,-11.02473 -6.88558,-16.70286 -17.62181,-17.42242 z m -39.13295,3.97024 -21.21071,3.61051 0.64447,4.90891 6.51887,0.26991 1.16122,1.5591 -13.16607,35.73727 -20.33989,-31.03878 0.86204,-1.52649 5.82974,-1.74452 -0.64448,-4.90892 -24.12272,4.10699 0.64449,4.90892 6.50375,0.14575 26.31611,39.3044 3.41702,26.01455 -1.43937,2.00083 -6.98951,1.81767 0.65965,5.03053 26.93157,-4.58182 -0.65961,-5.03305 -7.15169,0.591 -1.88922,-1.43563 -3.62682,-27.60862 16.26388,-44.54463 6.13175,-2.67495 z m 31.93616,1.92444 c 8.89154,0.0585 13.68435,4.50987 14.51117,13.25255 1.13157,11.9653 -4.44354,17.86914 -17.51526,19.42537 -1.25489,0.14944 -2.61355,0.30963 -3.98467,0.34812 l -2.99741,-31.70124 c 2.60268,-0.4346 4.56449,-0.91843 5.92392,-1.08029 1.43791,-0.17115 2.79204,-0.25288 4.06225,-0.24452 z m 434.47454,23.27578 c -10.60696,-0.20818 -18.3145,6.37088 -20.5559,17.41484 -2.36803,11.66797 2.66532,17.8616 12.8545,26.96882 10.0089,8.92687 15.50469,12.83408 13.47843,22.81802 -1.7089,8.42018 -8.4568,12.81255 -18.38489,9.8996 -4.60579,-1.35135 -8.30011,-3.4562 -10.90211,-6.1314 l -0.9136,-2.43595 1.5787,-14.19326 -6.03841,-1.77181 -4.29789,21.1722 c 4.21991,3.78717 10.27327,7.09245 17.64256,9.25464 16.3762,4.80487 28.53583,-2.20689 31.41655,-16.4009 1.07418,-5.2927 0.44179,-10.1945 -1.81841,-14.55374 -3.60959,-6.79439 -8.74677,-10.33876 -13.454,-14.39636 -8.46423,-7.45405 -12.76598,-11.90448 -11.13031,-19.96378 1.78214,-8.78106 8.17372,-13.02199 16.87357,-10.46942 3.58231,1.05106 6.48108,2.79243 8.69807,5.22722 l 1.12038,2.49613 -0.78316,11.87737 5.32225,1.56273 3.7837,-18.64472 c -5.57489,-4.05727 -11.08571,-6.82142 -16.71502,-8.47309 -2.72511,-0.79956 -5.32724,-1.2091 -7.77501,-1.25714 z M 361.64567,138.1296 c -3.26452,-0.19373 -6.98093,0.18202 -11.16056,1.10984 l -26.3159,5.84189 0.82067,4.87217 6.00567,-0.57289 2.04107,1.31476 11.31192,67.1371 -1.46661,2.09575 -5.7811,1.91522 0.84222,4.99655 24.56211,-5.45394 -0.84227,-4.99402 -5.98408,0.69473 -2.04322,-1.31484 -4.88497,-28.99957 c 1.83708,-0.53421 3.57138,-1.04468 5.11939,-1.38833 9.39124,-2.08471 13.9495,0.18894 18.41925,9.56171 3.48103,7.31701 5.22891,15.14575 11.04473,19.16362 2.78417,1.91001 6.37395,2.24961 11.01798,1.21871 2.3736,-0.52691 4.89262,-1.46366 7.86549,-2.882 l -0.78175,-4.63116 -0.92845,0.20481 c -7.84326,1.74109 -11.39203,1.01302 -14.87362,-5.67185 -2.82244,-5.31435 -4.0534,-11.99386 -7.88733,-16.95729 -2.74145,-3.56273 -6.68234,-5.34264 -12.00603,-5.80408 10.65298,-5.39848 15.07691,-13.45733 13.31146,-23.93603 -1.89374,-11.24023 -7.61251,-16.93972 -17.40607,-17.52086 z m -6.13363,6.76418 c 7.45966,0.31122 11.78171,4.51913 13.38294,14.02307 2.03231,12.06268 -3.04934,18.1186 -15.43341,20.86769 -0.61921,0.13745 -2.47598,0.55036 -5.69572,1.13869 l -5.72725,-33.99358 4.95201,-1.10152 c 3.1992,-0.71018 6.03487,-1.03808 8.52143,-0.93435 z m -39.3077,2.19576 -57.77799,15.78815 3.81959,18.60173 5.62293,-1.53728 -0.87423,-11.6248 1.06143,-2.2032 15.74805,-4.30275 14.00736,68.24508 -1.49392,2.19571 -6.72816,2.4751 1.01641,4.95214 26.69056,-7.29205 -1.01635,-4.95464 -6.97635,1.26815 -2.18665,-1.18614 -14.00731,-68.24761 15.74805,-4.30276 1.80165,1.41996 3.7373,10.84406 5.62508,-1.5372 z m 177.18189,11.59896 c 8.96765,0.11425 13.79215,4.88839 14.72103,14.71042 1.17823,12.45872 -4.82803,18.28861 -18.84091,19.9569 -2.19605,0.26145 -4.50733,0.41162 -7.04044,0.46371 l -3.11449,-32.9364 c 4.03172,-0.97896 7.45954,-1.63517 10.17846,-1.95888 1.45095,-0.17272 2.81526,-0.25207 4.09635,-0.23579 z"
     id="text4186"
     inkscape:connector-curvature="0" />
  <path
     style="opacity:0.98999999;fill:#f4eed7;fill-opacity:1;stroke-width:0.3079809"
     d="m 1035.717,391.48922 c -27.0407,-26.15957 -39.19907,-35.34231 -67.04634,-50.63726 -4.37087,-2.40067 -10.71886,-5.89229 -14.10665,-7.75915 -17.72482,-9.76738 -30.97539,-18.40173 -37.25555,-24.27651 -5.09739,-4.76836 -6.41704,-9.30295 -3.13042,-10.75678 2.72013,-1.20325 4.5627,-1.29581 30.3766,-1.52607 26.02076,-0.23211 28.12852,-0.34041 30.5444,-1.5693 2.65793,-1.35203 7.75186,-6.53067 18.905,-19.21942 4.70928,-5.35768 31.83356,-36.93842 36.43756,-42.42414 l 2.2615,-2.6946 1.122,0.87429 c 0.617,0.48085 5.0025,3.48616 9.7454,6.67846 22.4886,15.13637 31.6771,23.07672 42.9362,37.10402 10.0756,12.55271 29.051,41.02302 28.6156,42.93442 -0.08,0.35122 -1.128,0.14061 -5.1819,-1.04139 -14.3276,-4.17743 -17.0679,-4.94124 -20.3747,-5.6791 -9.0669,-2.02315 -15.59,-2.64322 -29.9802,-2.84985 -12.107,-0.17383 -22.5617,0.20229 -22.9469,0.82555 -0.4576,0.74046 0.5826,7.40084 3.403,21.78811 3.0908,15.76653 3.4907,20.09408 3.9766,43.03811 0.1687,7.96131 0.3842,17.00439 0.4791,20.09575 0.095,3.09136 0.133,5.61293 0.085,5.60349 -0.048,-0.009 -4.0375,-3.83832 -8.8651,-8.50863 z"
     id="path1023"
     inkscape:connector-curvature="0" />
  <path
     style="opacity:0.98999999;fill:#f4eed7;fill-opacity:1;stroke-width:0.61596173"
     d="m 877.84718,1118.1038 c -24.86287,-10.5985 -35.70635,-18.2785 -41.04372,-29.0698 -2.18714,-4.422 -2.39875,-5.3044 -2.59177,-10.8075 -0.2558,-7.2929 1.35576,-14.5015 4.37087,-19.551 2.55343,-4.2763 13.22289,-15.4678 20.68133,-21.6932 3.17655,-2.6514 11.63701,-8.9119 18.80101,-13.9122 43.2189,-30.1656 106.83483,-78.59545 155.9286,-118.70608 28.7901,-23.52215 40.6046,-37.79224 46.471,-56.12969 3.4867,-10.89926 5.0171,-21.41314 6.5,-44.65723 1.0169,-15.9385 3.1579,-40.57337 3.8093,-43.83045 0.3657,-1.82836 0.4345,-1.87005 1.2625,-0.76434 0.4816,0.64322 4.1621,7.68328 8.1788,15.64459 4.0166,7.96131 8.9624,16.96975 10.9905,20.01876 4.2471,6.38501 13.9508,17.55491 15.2506,17.55491 1.8387,0 13.1526,-19.92222 18.7147,-32.95396 5.6961,-13.34573 19.8252,-38.30852 20.2022,-35.69242 0.1002,0.69591 -1.0655,11.36744 -2.5905,23.71453 -1.5251,12.34708 -3.348,28.40867 -4.0508,35.69242 -3.6173,37.48415 -9.8651,61.23158 -22.8502,86.85061 -11.2802,22.25529 -24.401,39.66903 -47.9734,63.66942 -34.9265,35.56077 -73.0733,66.48053 -158.01225,128.07623 -32.12733,23.2979 -42.79377,32.7144 -42.94147,37.9091 -0.0304,1.0708 -0.35965,1.9407 -0.73156,1.9332 -0.37192,-0.01 -4.141,-1.4907 -8.37574,-3.2959 z"
     id="path1046"
     inkscape:connector-curvature="0" />
  <g
     aria-label="LABORARE"
     transform="matrix(-0.91768865,0.56707889,-0.53662013,-0.96977699,1496.6343,806.86275)"
     style="font-style:normal;font-weight:normal;font-size:58.6379776px;line-height:1.25;font-family:sans-serif;letter-spacing:0px;word-spacing:0px;fill:#000000;fill-opacity:1;stroke:none;stroke-width:2.93189883"
     id="text4273">
    <path
       d="m 623.41652,73.947079 -28.08677,0.215552 0.0819,10.671798 3.04909,-0.0234 0.94281,-7.044 0.81371,-0.94448 13.25179,-0.101702 0.25426,33.129483 -0.99052,0.82856 -3.33957,0.37746 0.018,2.34545 14.30725,-0.1098 -0.018,-2.34545 -3.69678,-0.32346 -1.00312,-0.81326 -0.24795,-32.308576 0.99051,-0.828557 3.69184,-0.321532 z"
       style="font-style:normal;font-variant:normal;font-weight:normal;font-stretch:normal;font-family:'Bitstream Charter';-inkscape-font-specification:'Bitstream Charter';stroke-width:2.93189883"
       id="path636"
       inkscape:connector-curvature="0" />
    <path
       d="m 579.30058,114.47565 12.41353,-37.170009 3.37397,-0.823585 -0.0851,-2.40265 -11.48584,0.406766 0.0851,2.402651 3.81945,0.158109 0.61507,0.799664 -3.7643,11.340186 -13.82989,0.489781 -4.61568,-11.043413 0.38115,-0.834944 3.6229,-0.421678 -0.0851,-2.402651 -13.30248,0.471103 0.0851,2.402651 3.54098,0.578694 15.36346,36.186295 z m -1.15553,-6.11993 -6.61079,-16.018781 11.83745,-0.419219 z"
       style="font-style:normal;font-variant:normal;font-weight:normal;font-stretch:normal;font-family:'Bitstream Charter';-inkscape-font-specification:'Bitstream Charter';stroke-width:2.93189883"
       id="path638"
       inkscape:connector-curvature="0" />
    <path
       d="m 557.96403,114.7983 -0.1664,-2.33961 -3.35891,-0.11381 -1.05257,-0.74814 -2.29227,-32.228109 0.93609,-0.889586 3.31314,-0.529582 -0.17056,-2.398099 -15.44142,1.09829 c -9.94334,0.707233 -14.97473,5.180125 -14.45055,12.549892 0.4077,5.732041 4.58031,9.021212 11.54481,8.584639 -5.5069,1.920124 -8.16075,5.106975 -7.84457,9.552235 0.45762,6.43392 5.11921,9.15924 14.06821,8.52273 z m -10.85709,-17.098756 1.06917,15.031986 c -1.4581,0.16249 -2.56109,0.35852 -3.32146,0.4126 -6.43393,0.45762 -9.76297,-1.71583 -10.09994,-6.45353 -0.40354,-5.67355 2.81416,-8.371435 10.12544,-8.891459 0.70188,-0.04992 1.46226,-0.104005 2.22679,-0.0996 z m -1.31878,-18.541398 1.11077,15.616887 c -2.26448,0.396209 -4.18633,0.650475 -5.70708,0.75864 -6.49241,0.461782 -9.82977,-1.828647 -10.20835,-7.151257 -0.42018,-5.907512 3.03565,-8.563542 10.87333,-9.121008 1.2283,-0.08736 2.51924,-0.120398 3.93133,-0.103262 z"
       style="font-style:normal;font-variant:normal;font-weight:normal;font-stretch:normal;font-family:'Bitstream Charter';-inkscape-font-specification:'Bitstream Charter';stroke-width:2.93189883"
       id="path640"
       inkscape:connector-curvature="0" />
    <path
       d="m 505.06304,120.35521 c 5.01003,-0.57457 9.17881,-2.82332 12.28668,-6.60304 3.4689,-4.23427 4.90657,-9.71116 4.17835,-16.061077 -0.72823,-6.349919 -3.37517,-11.417392 -7.77753,-14.80799 -3.75299,-2.874847 -8.43914,-4.108095 -13.39091,-3.540212 -6.75771,0.774994 -12.19583,4.821948 -14.8168,10.788672 -1.59321,3.606009 -2.14262,7.56449 -1.64823,11.875447 0.72823,6.34992 3.42674,11.35245 7.76417,14.69147 3.88286,2.978 8.39424,4.23129 13.40427,3.65673 z m -0.36077,-3.14583 c -7.51504,0.86184 -13.44811,-5.06824 -14.69077,-15.90388 -1.24266,-10.835637 3.18718,-18.013187 10.70222,-18.875034 7.5733,-0.868527 13.51304,5.119808 14.75571,15.955449 1.25602,10.952155 -3.19387,17.954935 -10.76716,18.823465 z"
       style="font-style:normal;font-variant:normal;font-weight:normal;font-stretch:normal;font-family:'Bitstream Charter';-inkscape-font-specification:'Bitstream Charter';stroke-width:2.93189883"
       id="path642"
       inkscape:connector-curvature="0" />
    <path
       d="m 483.58078,121.92766 -0.37285,-2.31569 -3.35579,0.18395 -1.11467,-0.65204 -5.13593,-31.898708 0.85367,-0.968952 3.25326,-0.820766 -0.38216,-2.373588 -13.77839,2.218426 0.38216,2.373588 3.34647,-0.241842 1.11467,0.652035 2.21843,13.778387 c -1.03274,0.22567 -2.00759,0.44203 -2.87598,0.58184 -5.26821,0.84822 -7.76836,-0.29345 -10.09579,-4.78896 -1.81229,-3.509369 -2.64973,-7.235091 -5.82005,-9.219157 -1.51795,-0.943463 -3.51229,-1.156897 -6.11745,-0.737447 -1.33152,0.214386 -2.75087,0.621091 -4.43171,1.248079 l 0.3542,2.199911 c 0.17368,-0.02796 0.34735,-0.05593 0.52103,-0.08389 4.39982,-0.708405 6.36423,-0.311972 8.18781,2.898614 1.48016,2.553163 2.05071,5.727923 4.10047,8.12998 1.46544,1.72403 3.62953,2.62285 6.58743,2.91872 -6.02867,2.3961 -8.63288,6.14141 -7.83126,11.12016 1.1465,7.12076 6.2513,9.68426 15.62987,8.17424 z m -9.92313,-1.13438 -2.77883,0.44741 c -7.17866,1.15582 -11.00641,-0.48483 -11.9758,-6.50564 -0.92279,-5.73134 2.01355,-8.52045 8.96064,-9.63898 0.34735,-0.0559 1.38942,-0.22371 3.1934,-0.45477 z"
       style="font-style:normal;font-variant:normal;font-weight:normal;font-stretch:normal;font-family:'Bitstream Charter';-inkscape-font-specification:'Bitstream Charter';stroke-width:2.93189883"
       id="path644"
       inkscape:connector-curvature="0" />
    <path
       d="m 433.36029,131.1398 6.18906,-38.69626 3.19461,-1.362505 -0.47556,-2.356652 -11.26595,2.273442 0.47557,2.356652 3.79415,-0.466551 0.73718,0.688718 -1.86558,11.802096 -13.56512,2.73741 -6.35396,-10.143411 0.23997,-0.885905 3.50572,-1.006547 -0.47557,-2.356651 -13.0478,2.633017 0.47557,2.356651 3.58795,-0.0062 21.05613,33.198246 z m -2.13758,-5.84974 -9.13335,-14.72705 11.61082,-2.34304 z"
       style="font-style:normal;font-variant:normal;font-weight:normal;font-stretch:normal;font-family:'Bitstream Charter';-inkscape-font-specification:'Bitstream Charter';stroke-width:2.93189883"
       id="path646"
       inkscape:connector-curvature="0" />
    <path
       d="m 412.62966,134.86878 -0.56164,-2.27728 -3.32938,0.45875 -1.16442,-0.55836 -7.73661,-31.36957 0.77127,-1.03575 3.17493,-1.084998 -0.57569,-2.334215 -13.54983,3.341763 0.57568,2.33422 3.31534,-0.51568 1.16442,0.55835 3.34176,13.54984 c -1.01073,0.30967 -1.96454,0.6053 -2.81852,0.81591 -5.18082,1.27774 -7.76624,0.3451 -10.45477,-3.94422 -2.0942,-3.34879 -3.23459,-6.99321 -6.55706,-8.71039 -1.59026,-0.8157 -3.59538,-0.86473 -6.15733,-0.23289 -1.30943,0.32295 -2.69061,0.84477 -4.31433,1.60759 l 0.53356,2.16342 c 0.1708,-0.0421 0.34159,-0.0842 0.51239,-0.12637 4.32684,-1.06711 6.31716,-0.83324 8.39808,2.21685 1.68471,2.42307 2.5139,5.54029 4.75388,7.76602 1.602,1.59793 3.83255,2.31611 6.80476,2.36822 -5.81168,2.8828 -8.09972,6.82921 -6.89219,11.72537 1.72705,7.00265 7.02502,9.13853 16.24802,6.86389 z m -9.98275,-0.31614 -2.73274,0.67397 c -7.05958,1.74108 -11.00906,0.42013 -12.46933,-5.50081 -1.39006,-5.63627 1.30747,-8.65696 8.13932,-10.34189 0.34159,-0.0842 1.36637,-0.33698 3.1453,-0.71532 z"
       style="font-style:normal;font-variant:normal;font-weight:normal;font-stretch:normal;font-family:'Bitstream Charter';-inkscape-font-specification:'Bitstream Charter';stroke-width:2.93189883"
       id="path648"
       inkscape:connector-curvature="0" />
    <path
       d="m 366.42963,105.86618 -29.00992,8.38913 2.6552,9.18178 2.92915,-0.84705 -0.68764,-5.96625 0.52799,-1.12933 15.09643,-4.36561 4.56107,15.77238 -9.23811,2.67149 -1.03296,-0.61689 -1.73615,-3.89286 -2.6475,0.76561 3.5837,12.39259 2.64751,-0.76561 -0.62584,-4.27498 0.56056,-1.01668 9.23812,-2.67149 4.12126,14.25148 -13.01222,3.76289 -1.03296,-0.6169 -2.17324,-4.55999 -3.15447,0.91222 2.37828,8.22417 26.98204,-7.80271 -0.65159,-2.25319 -3.30854,0.59052 -1.18566,-0.51169 -8.97556,-31.0378 0.72956,-1.06554 3.12936,-1.21016 z"
       style="font-style:normal;font-variant:normal;font-weight:normal;font-stretch:normal;font-family:'Bitstream Charter';-inkscape-font-specification:'Bitstream Charter';stroke-width:2.93189883"
       id="path650"
       inkscape:connector-curvature="0" />
  </g>
  <path
     style="opacity:0.98999999;fill:#f4eed7;fill-opacity:1;stroke-width:0.61596173"
     d="m 590.9526,1270.8497 c -24.35265,-2.3868 -47.29241,-6.584 -70.52762,-12.904 -55.82329,-15.1842 -112.8792,-40.8876 -169.08151,-76.1703 -24.63227,-15.4637 -56.74596,-38.9088 -66.29139,-48.3971 -4.12167,-4.097 -5.16017,-6.5941 -5.16017,-12.4076 0,-3.5662 1.45439,-5.5505 5.22179,-7.1247 4.27684,-1.7869 8.41431,-1.1722 29.25956,4.3472 25.48672,6.7485 33.41682,7.4961 43.53731,4.1044 6.61705,-2.2175 21.43551,-8.5404 26.07888,-11.1275 1.86328,-1.0382 3.77747,-1.8926 4.25375,-1.8987 0.47628,-0.01 4.21825,2.1611 8.31549,4.8161 32.25275,20.8995 65.00219,35.4969 105.88073,47.1942 36.45506,10.4314 66.92509,14.7808 108.83992,15.536 41.18376,0.7421 75.62843,-2.991 112.04769,-12.1438 42.50573,-10.6823 81.21017,-27.0808 115.72919,-49.0325 5.51892,-3.5096 10.33531,-6.3812 10.70309,-6.3812 0.36778,0 3.19765,1.3642 6.28859,3.0314 8.57316,4.6245 20.46485,9.0943 28.71846,10.7945 9.4389,1.9445 16.60583,1.0799 37.57366,-4.5326 21.42925,-5.7361 28.05084,-6.6345 31.80377,-4.3151 3.08277,1.9053 3.92245,3.4747 3.91857,7.3241 -0.006,5.6304 -0.96756,7.8974 -5.04307,11.8852 -11.14564,10.906 -44.83628,35.1678 -72.25668,52.0343 -54.25198,33.3711 -110.90139,58.5141 -163.22987,72.4474 -38.45715,10.2398 -64.45516,13.4575 -106.86937,13.227 -9.6552,-0.053 -18.52505,-0.1905 -19.71077,-0.3067 z"
     id="path1048"
     inkscape:connector-curvature="0" />
  <g
     aria-label="CODIFICARE"
     transform="matrix(0.63437918,-0.0055188,0,0.42355781,225.68039,705.41711)"
     style="font-style:normal;font-variant:normal;font-weight:normal;font-stretch:normal;font-size:133.33332825px;line-height:1.25;font-family:'Bitstream Charter';-inkscape-font-specification:'Bitstream Charter';letter-spacing:0px;word-spacing:0px;fill:#000000;fill-opacity:1;stroke:none;stroke-width:2.14008713"
     id="text4249">
    <path
       d="m 342.60518,1173.5847 11.40289,-17.7138 -6.27831,-4.0416 -10.47737,10.8568 -2.94852,0.6391 c -4.01291,-1.1561 -7.55286,-2.8006 -10.69201,-4.8214 -18.16225,-11.6915 -21.17834,-31.393 -7.466,-52.6944 12.91846,-20.0682 31.58776,-25.1758 48.29255,-14.4225 4.37239,2.8147 7.75891,6.4218 10.68019,10.998 l 0.1584,2.9563 -4.8858,11.2848 6.27831,4.0415 11.1142,-17.2654 c -6.5243,-7.847 -13.12986,-13.8434 -19.74451,-18.1015 -23.31943,-15.0114 -48.93474,-9.4594 -63.94613,13.86 -9.4543,14.6868 -10.42661,32.4551 -2.83294,47.0162 3.28076,6.2347 8.77291,11.9902 16.17234,16.7534 7.51155,4.8354 16.11336,8.4698 25.17271,10.6545 z"
       id="path4387"
       inkscape:connector-curvature="0" />
    <path
       d="m 434.15765,1127.9257 c -9.80728,-5.9415 -20.43276,-7.702 -31.28213,-5.233 -12.13124,2.7836 -22.34044,10.629 -29.87098,23.0591 -7.53053,12.4302 -9.82616,25.2257 -6.63134,37.4502 2.74532,10.3932 9.45363,19.1341 19.14687,25.0065 13.22843,8.0142 28.63931,8.3087 41.65785,1.2299 7.88437,-4.2652 14.38279,-10.6172 19.49526,-19.056 7.53054,-12.4302 9.64304,-25.1808 6.49317,-37.2221 -2.83522,-10.7595 -9.20142,-19.2931 -19.0087,-25.2346 z m -3.73072,6.158 c 14.71092,8.9123 17.12252,27.8334 4.27225,49.0445 -12.85027,21.2111 -30.80655,27.9486 -45.51747,19.0363 -14.82496,-8.9814 -17.16747,-28.0165 -4.3172,-49.2276 12.98844,-21.4391 30.73746,-27.8345 45.56242,-18.8532 z"
       id="path4389"
       inkscape:connector-curvature="0" />
    <path
       d="m 493.69348,1161.749 -30.92036,-11.3374 -1.83601,5.0074 6.86006,3.3674 1.48552,2.5329 -25.29104,68.9762 -2.77072,0.9722 -7.36497,-1.9904 -1.88191,5.1326 30.92036,11.3373 c 12.51836,4.59 22.53722,6.7014 33.39062,3.4383 13.11087,-3.9976 22.76249,-13.6659 28.22462,-28.5628 9.63906,-26.2886 -1.14765,-47.9953 -30.81617,-58.8737 z m -12.50166,1.9487 9.88951,3.6261 c 22.90861,8.3998 29.73533,24.2522 20.78478,48.663 -8.90465,24.2856 -24.45242,32.2181 -47.36103,23.8184 l -9.8895,-3.6262 z"
       id="path4391"
       inkscape:connector-curvature="0" />
    <path
       d="m 519.98569,1263.415 33.229,5.8113 0.94175,-5.3849 -8.2909,-2.1267 -1.91121,-2.2293 12.65629,-72.3683 2.55435,-1.4483 8.54357,0.6821 0.91879,-5.2536 -33.229,-5.8114 -0.91878,5.2536 8.26793,2.2581 1.91121,2.2293 -12.65629,72.3683 -2.55435,1.4482 -8.5206,-0.8133 z"
       id="path4393"
       inkscape:connector-curvature="0" />
    <path
       d="m 562.36695,1270.9887 33.56714,1.4857 0.24171,-5.4613 -9.42793,-1.0846 -2.18191,-1.9651 1.50926,-34.0999 21.84528,0.9669 1.7764,2.0805 0.90166,9.7828 6.26054,0.2771 1.30291,-29.4379 -6.26054,-0.277 -1.7624,9.6648 -1.94738,1.7823 -21.84528,-0.9668 1.55053,-35.0324 29.97065,1.3265 1.64321,2.0747 1.43797,12.7427 7.32616,0.3242 0.9197,-20.7796 -63.9374,-2.8299 -0.23582,5.3281 8.62281,1.1825 2.18192,1.965 -3.24844,73.3948 -2.34699,1.7647 -7.62204,0.3299 z"
       id="path4395"
       inkscape:connector-curvature="0" />
    <path
       d="m 634.22515,1272.7698 33.62708,-2.6753 -0.43356,-5.4495 -8.55932,0.012 -2.40757,-1.681 -5.8265,-73.2353 2.11148,-2.0405 8.44301,-1.4743 -0.42298,-5.3165 -33.62708,2.6753 0.42298,5.3166 8.5699,0.1207 2.40757,1.681 5.8265,73.2353 -2.11148,2.0405 -8.45358,1.3413 z"
       id="path4397"
       inkscape:connector-curvature="0" />
    <path
       d="m 749.12892,1252.2026 -4.16217,-20.6515 -7.31948,1.4752 0.0485,15.0879 -1.6698,2.5127 c -3.68407,1.9667 -7.36915,3.2534 -11.02889,3.991 -21.17423,4.2676 -37.06444,-7.7635 -42.06957,-32.5974 -4.71537,-23.3963 5.118,-40.0677 24.59306,-43.9928 5.09751,-1.0273 10.03998,-0.7993 15.32389,0.448 l 2.17334,2.0102 4.35778,11.499 7.31948,-1.4752 -4.05679,-20.1286 c -10.14736,-1.0831 -19.06367,-0.7823 -26.77528,0.772 -27.18666,5.4793 -41.69302,27.3089 -36.21371,54.4956 3.45091,17.1224 15.13322,30.5455 30.72558,35.6999 6.69735,2.1865 14.64704,2.4885 23.27358,0.7499 8.75725,-1.765 17.45979,-5.1511 25.48044,-9.8959 z"
       id="path4399"
       inkscape:connector-curvature="0" />
    <path
       d="m 762.61953,1155.8094 -2.93799,89.0589 -6.81863,3.9838 1.74422,5.181 24.76742,-8.3382 -1.74422,-5.181 -8.4264,2.1334 -1.85923,-1.3437 0.84635,-27.156 29.822,-10.0399 17.22375,21.0725 -0.28896,2.0669 -7.62188,3.2695 1.74422,5.1809 28.68471,-9.657 -1.74422,-5.181 -8.09237,1.0362 -56.95872,-68.8941 z m 6.48874,12.5876 24.79965,30.6211 -25.5256,8.5935 z"
       id="path4401"
       inkscape:connector-curvature="0" />
    <path
       d="m 803.21648,1143.1476 2.21378,4.8521 7.24642,-2.4268 2.837,0.7574 30.49493,66.8387 -1.28735,2.6391 -6.63762,3.7612 2.26913,4.9735 28.87043,-13.1721 -2.26913,-4.9735 -7.19107,2.5482 -2.837,-0.7574 -13.17204,-28.8705 c 2.12813,-1.1175 4.13496,-2.1796 5.95453,-3.0098 11.03869,-5.0364 17.20852,-4.0409 25.02201,4.4117 6.08945,6.6013 10.17207,14.2647 18.31916,16.7029 3.89689,1.1532 8.39804,0.4185 13.85673,-2.072 2.79,-1.2729 5.65657,-3.0204 8.96364,-5.4086 l -2.1031,-4.6096 c -0.36392,0.1661 -0.72783,0.3321 -1.09174,0.4981 -9.21913,4.2062 -13.76501,4.5216 -19.69904,-1.4177 -4.78468,-4.7051 -7.94994,-11.3215 -13.89232,-15.3519 -4.25246,-2.8961 -9.53905,-3.5618 -16.20244,-2.4269 11.77259,-8.8885 15.22372,-18.6702 10.46408,-29.1023 -6.8074,-14.9205 -19.54509,-17.4626 -39.19639,-8.4967 z m 22.43976,-3.4966 5.82261,-2.6565 c 15.04174,-6.8628 24.4231,-5.5739 30.17895,7.0418 5.47912,12.0091 0.72322,19.8946 -13.8333,26.536 -0.72783,0.332 -2.91131,1.3283 -6.72708,2.9226 z"
       id="path4403"
       inkscape:connector-curvature="0" />
    <path
       d="m 918.59859,1188.2768 59.4013,-34.447 -10.90265,-18.8008 -5.9978,3.4782 4.79481,12.7866 -0.54459,2.7819 -30.91175,17.9259 -18.72847,-32.2959 18.91614,-10.9695 2.61811,0.7937 5.96931,7.6358 5.42109,-3.1437 -14.71523,-25.3754 -5.42109,3.1438 3.72936,9.0888 -0.67837,2.5512 -18.91614,10.9696 -16.92251,-29.1816 26.64407,-15.451 2.61811,0.7937 7.30022,8.8677 6.45917,-3.7457 -9.76556,-16.84 -55.24897,32.039 2.67549,4.6137 6.97584,-3.1205 2.89724,0.4777 36.85496,63.5536 -1.02439,2.7519 -6.24008,4.3893 z"
       id="path4405"
       inkscape:connector-curvature="0" />
  </g>
</svg>
